<?xml version="1.0" standalone="no"?>
<!DOCTYPE svg PUBLIC "-//W3C//DTD SVG 20010904//EN"
 "http://www.w3.org/TR/2001/REC-SVG-20010904/DTD/svg10.dtd">
<svg version="1.0" xmlns="http://www.w3.org/2000/svg"
 width="1024.000000pt" height="700.000000pt" viewBox="0 0 1024.000000 700.000000"
 preserveAspectRatio="xMidYMid meet">

<g transform="translate(0.000000,700.000000) scale(0.100000,-0.100000)"
fill="#000000" stroke="none">
<path d="M0 6598 c0 -236 4 -414 10 -432 24 -75 70 -278 64 -287 -3 -5 4 -28
15 -52 40 -83 61 -199 54 -302 -4 -63 -2 -109 7 -139 l13 -46 48 0 c70 0 120
25 144 74 6 12 23 27 38 34 15 7 27 19 27 27 0 20 42 105 52 105 4 0 8 7 8 15
0 11 11 15 40 15 22 0 40 -3 40 -8 0 -4 10 -12 22 -17 13 -6 26 -24 30 -42 5
-18 13 -33 18 -33 6 0 10 -29 10 -63 0 -61 21 -127 40 -127 4 0 11 -11 14 -25
4 -14 11 -25 16 -25 6 0 10 -4 10 -9 0 -4 40 -48 90 -97 81 -80 90 -93 90
-126 l0 -38 54 0 55 0 3 -52 c2 -30 8 -53 16 -56 6 -2 12 3 12 12 0 9 8 16 20
16 11 0 20 -7 20 -15 0 -12 18 -15 100 -15 82 0 100 3 100 15 0 12 15 15 76
15 l77 0 43 44 c24 24 44 46 44 50 0 4 16 24 36 44 47 49 63 88 65 170 3 73
-19 172 -37 172 -15 0 -24 47 -24 121 0 54 2 59 33 81 36 25 63 47 82 66 8 6
18 12 23 12 5 0 17 9 27 20 21 24 32 25 37 5 3 -12 7 -12 36 2 18 9 36 13 40
9 4 -4 8 -58 9 -119 3 -102 6 -117 33 -172 33 -65 39 -113 25 -203 -5 -36 -4
-65 5 -91 11 -33 10 -42 -12 -87 -14 -28 -37 -90 -53 -139 -26 -82 -27 -96
-22 -206 4 -99 9 -127 31 -175 24 -53 25 -59 11 -81 -14 -21 -22 -23 -63 -19
-26 3 -62 8 -79 12 -25 5 -33 3 -33 -7 0 -10 -3 -11 -8 -3 -4 7 -53 14 -122
17 -63 4 -139 11 -169 17 -50 9 -175 11 -581 6 -74 0 -162 0 -195 1 -33 1
-153 1 -267 0 -200 -2 -207 -3 -226 -25 -11 -12 -25 -37 -32 -55 -7 -17 -21
-49 -32 -70 -17 -32 -19 -49 -13 -100 3 -34 7 -79 7 -101 0 -40 -28 -116 -44
-116 -4 0 -8 -285 -8 -634 0 -578 1 -634 16 -640 16 -6 16 -8 0 -24 -14 -17
-16 -59 -16 -380 0 -340 1 -362 18 -362 19 0 37 16 162 144 89 92 140 129 140
102 0 -8 -26 -41 -57 -73 -80 -81 -86 -90 -143 -203 -28 -55 -66 -118 -85
-139 l-35 -38 0 -407 c0 -350 2 -406 15 -406 21 0 72 -53 67 -69 -3 -8 0 -11
5 -8 13 8 63 -40 63 -60 0 -8 4 -12 9 -9 9 6 21 -14 27 -42 1 -8 9 -28 17 -45
8 -18 17 -39 19 -47 3 -8 11 -15 19 -16 8 0 24 -2 36 -2 12 -1 24 -11 28 -22
4 -11 11 -18 16 -15 5 4 9 -3 9 -13 0 -32 22 -44 58 -31 30 10 34 8 91 -48 33
-32 79 -70 102 -83 23 -14 75 -56 115 -94 40 -38 89 -79 108 -92 37 -25 70
-103 82 -197 4 -26 11 -47 15 -47 13 0 11 31 -6 86 -8 27 -15 67 -15 89 0 54
-24 95 -91 152 -30 27 -54 54 -51 61 2 7 -5 12 -15 12 -16 1 -16 2 -2 10 9 5
58 14 110 20 51 6 99 15 106 21 8 8 33 9 70 4 32 -5 69 -8 83 -9 19 -1 24 -6
22 -21 -2 -11 -5 -22 -7 -24 -6 -5 -65 23 -65 31 0 4 -6 5 -13 2 -8 -3 -26 0
-40 5 -15 6 -27 7 -27 2 0 -4 27 -16 60 -27 96 -30 93 -25 59 -140 -47 -157
-57 -197 -65 -237 l-6 -37 343 0 344 0 20 42 c11 23 30 57 42 75 13 19 26 45
29 58 7 29 10 30 60 9 85 -36 247 -65 324 -59 25 2 74 9 110 15 36 6 90 14
120 17 60 5 163 40 155 53 -3 5 4 6 15 3 12 -3 28 1 38 10 25 21 82 49 117 57
l30 6 -3 146 c-3 118 -1 157 13 198 10 31 15 64 11 83 -6 32 24 140 45 161 13
14 24 -1 12 -16 -19 -23 -33 -82 -37 -155 -2 -39 -9 -81 -16 -92 -6 -13 -10
-63 -8 -128 l3 -108 35 -3 c19 -2 39 -8 45 -13 18 -18 35 -9 52 29 9 20 17 42
18 49 0 7 9 19 20 27 11 8 20 20 20 28 0 13 -61 68 -76 68 -5 0 -9 9 -9 20 0
11 -4 20 -9 20 -5 0 -19 15 -30 34 -26 42 -27 102 -2 158 11 24 23 59 26 79 3
21 17 53 30 73 14 20 25 38 25 40 0 2 -35 3 -77 2 l-78 -1 3 31 c3 28 0 32
-30 38 -18 3 -44 18 -59 32 -17 16 -35 24 -50 22 -20 -2 -23 -8 -21 -33 2 -16
10 -36 19 -42 15 -11 12 -13 -17 -13 -43 0 -120 29 -120 44 0 7 -14 22 -30 35
l-31 22 -28 -21 c-16 -11 -34 -20 -41 -20 -6 0 -8 -4 -5 -10 19 -31 -137 25
-204 74 -25 18 -56 37 -68 40 -31 10 -59 48 -76 104 -29 92 -59 238 -64 312
-2 41 -7 82 -10 90 -4 8 -6 38 -5 65 0 45 0 47 -7 15 -5 -26 -10 2 -17 105
-11 171 -9 464 5 525 16 75 78 262 106 323 14 32 23 62 20 67 -3 6 -2 10 4 10
15 0 60 106 77 184 9 39 22 78 28 86 30 37 106 254 106 303 0 40 -21 118 -38
145 -8 13 -32 32 -53 43 -21 10 -51 36 -66 56 -15 20 -42 51 -59 69 -40 42
-84 100 -84 111 0 5 11 20 23 33 21 22 22 26 8 36 -13 10 -8 14 29 25 25 7 57
26 72 42 15 16 31 26 37 23 6 -4 8 7 5 29 -4 32 -2 35 21 35 15 0 24 4 21 9
-4 5 7 12 24 16 21 5 30 13 30 26 0 15 7 19 39 19 22 0 67 -7 101 -16 34 -8
64 -13 68 -10 3 3 -2 6 -11 6 -8 0 -23 7 -32 16 -13 14 -14 19 -3 25 7 5 9 9
4 9 -6 0 -1 6 9 14 17 13 18 20 8 92 -6 44 -21 113 -33 154 -19 67 -22 97 -20
270 1 274 -1 289 -62 358 -54 62 -91 127 -103 182 -7 31 -6 33 9 21 9 -7 16
-11 16 -9 0 3 5 30 11 59 6 30 12 65 15 79 5 27 46 132 54 140 3 3 24 31 48
63 23 31 50 57 59 57 8 0 31 9 49 21 31 19 34 19 34 3 0 -14 9 -9 38 19 20 20
52 50 69 66 29 26 31 31 16 39 -14 9 -14 10 5 16 12 4 22 15 23 24 0 14 2 13
9 -3 7 -17 9 -17 9 -2 1 9 8 17 17 17 13 0 15 7 9 37 -4 21 -13 50 -21 65 -8
15 -14 33 -15 40 -1 30 -59 60 -132 68 -108 13 -103 7 -101 108 1 116 20 247
42 285 9 17 32 47 50 66 17 19 32 38 32 42 0 4 14 10 30 14 17 4 68 35 114 70
49 37 97 65 117 68 19 3 57 11 84 17 79 19 88 18 118 -7 16 -12 37 -23 46 -23
16 0 133 -81 172 -120 56 -55 161 -236 189 -325 34 -109 41 -125 56 -125 17 0
58 -64 68 -105 4 -16 11 -52 16 -80 4 -27 12 -59 16 -69 7 -17 8 -17 19 -2 33
44 73 -28 120 -211 31 -120 44 -145 24 -44 -6 34 -9 64 -5 68 3 3 6 -5 6 -18
0 -19 2 -21 10 -9 7 11 8 6 4 -16 -4 -22 -2 -33 9 -37 11 -4 13 2 6 31 -20 93
-108 386 -135 450 -8 17 -20 47 -28 65 -8 17 -17 41 -20 52 -6 20 -6 20 9 1 8
-11 15 -26 15 -34 0 -7 5 -10 10 -7 5 3 11 -4 11 -17 1 -13 3 -17 6 -7 5 19
-46 111 -57 104 -9 -6 -40 33 -40 50 0 5 9 -3 20 -20 11 -16 20 -24 20 -16 0
16 -57 118 -71 126 -16 11 -10 -11 12 -39 12 -15 19 -29 16 -32 -8 -8 -57 68
-57 89 0 10 -4 15 -10 12 -6 -3 -7 1 -4 9 3 9 1 16 -4 16 -6 0 -14 10 -18 23
-3 12 -22 41 -40 64 -20 24 -30 44 -24 48 5 3 10 12 10 18 0 8 -3 8 -9 -2 -7
-11 -10 -11 -17 0 -25 40 -32 58 -22 61 7 3 7 11 -1 27 -7 12 -11 25 -9 27 9
8 78 -32 71 -41 -4 -4 -2 -5 5 -1 8 5 27 -3 49 -20 20 -15 34 -21 31 -14 -2 8
-13 18 -23 24 -25 14 -48 36 -39 36 21 0 74 -47 70 -62 -2 -9 4 -25 13 -35 36
-39 61 -82 56 -95 -3 -8 8 -32 25 -53 36 -46 41 -26 4 22 -28 37 -23 46 7 11
14 -18 9 5 -20 92 -51 147 -83 220 -110 244 -11 11 -21 14 -21 9 0 -6 7 -16
16 -24 8 -7 13 -21 11 -30 -3 -10 4 -26 14 -35 10 -9 19 -22 19 -28 0 -6 -4
-5 -9 2 -4 8 -26 16 -49 19 -28 4 -46 13 -61 33 -19 27 -19 28 -1 23 11 -3 20
-12 20 -19 0 -8 4 -14 9 -14 5 0 18 -3 28 -6 15 -5 16 -4 3 6 -11 9 -12 13 -3
17 21 8 -12 34 -34 27 -15 -5 -16 -4 -3 6 12 9 12 13 2 17 -7 3 -25 16 -40 30
-21 20 -24 26 -12 33 9 5 19 5 27 -2 8 -6 17 -8 20 -4 10 9 -123 132 -159 147
-15 6 -28 15 -28 20 0 5 -698 9 -1600 9 l-1600 0 0 -402z m2977 235 c-3 -10
-5 -4 -5 12 0 17 2 24 5 18 2 -7 2 -21 0 -30z m393 -73 c0 -5 -2 -10 -4 -10
-3 0 -8 5 -11 10 -3 6 -1 10 4 10 6 0 11 -4 11 -10z m100 -115 c16 -19 1 -19
-24 0 -16 12 -17 15 -4 15 8 0 21 -7 28 -15z m-1485 -1666 c-3 -9 -2 -20 3
-23 6 -3 8 -61 6 -132 -3 -137 -15 -185 -66 -280 l-32 -58 -12 29 c-18 42 -17
177 2 276 15 85 49 193 67 217 14 17 39 -5 32 -29z m-685 -720 c36 -6 106 -14
155 -18 l90 -6 -47 -23 c-27 -13 -51 -28 -54 -34 -3 -5 6 -22 20 -37 14 -15
26 -31 26 -37 1 -14 44 -60 69 -74 13 -6 20 -14 18 -17 -3 -2 -16 1 -29 8 -12
7 -29 14 -36 15 -8 1 -17 6 -20 10 -4 4 2 4 13 0 11 -4 1 12 -25 37 -47 46
-110 72 -110 44 0 -7 17 -30 38 -49 20 -20 45 -45 54 -57 10 -11 28 -21 41
-21 16 0 47 -25 100 -80 41 -44 81 -80 88 -80 13 0 6 -241 -12 -405 -5 -49
-10 -112 -12 -140 l-2 -50 -36 3 -36 2 -6 -60 c-13 -119 -1 -110 -143 -110
-100 0 -126 3 -130 15 -3 8 -2 46 3 84 l9 70 -29 11 -30 10 7 67 c17 176 25
370 16 407 -5 23 -16 104 -25 181 -17 143 -45 239 -76 258 -20 12 -69 1 -69
-16 0 -7 -20 -23 -45 -35 l-45 -22 15 38 c14 32 61 92 90 114 14 11 89 9 165
-3z m171 -186 c13 -16 12 -17 -3 -4 -10 7 -18 15 -18 17 0 8 8 3 21 -13z m599
-33 c0 -33 -6 -36 -33 -16 -16 13 -16 14 4 19 11 3 18 10 14 16 -3 6 -1 11 4
11 6 0 11 -13 11 -30z m-103 1 c-1 -16 -5 -18 -20 -9 -16 8 -17 12 -6 19 21
13 28 11 26 -10z m-58 -40 c9 -6 10 -10 2 -16 -16 -9 -44 2 -36 15 8 12 16 12
34 1z m124 -26 c30 -26 33 -35 15 -35 -17 1 -58 35 -58 49 0 17 12 13 43 -14z
m57 9 c0 -8 -5 -12 -10 -9 -6 4 -8 11 -5 16 9 14 15 11 15 -7z m-1284 -41
c-11 -11 -17 4 -9 23 7 18 8 18 11 1 2 -10 1 -21 -2 -24z m1101 8 c18 -14 33
-28 33 -31 0 -13 -40 -8 -51 6 -15 19 -78 46 -89 39 -5 -3 -11 -1 -15 4 -3 6
13 10 42 9 35 0 56 -7 80 -27z m-1080 -13 c-3 -8 -6 -5 -6 6 -1 11 2 17 5 13
3 -3 4 -12 1 -19z m880 6 c-3 -3 -12 -4 -19 -1 -8 3 -5 6 6 6 11 1 17 -2 13
-5z m286 -19 c23 -32 17 -32 -13 0 -13 14 -19 25 -14 25 5 0 17 -12 27 -25z
m-10 -32 c-7 -2 -19 -2 -25 0 -7 3 -2 5 12 5 14 0 19 -2 13 -5z m-1217 -35
c10 -12 15 -19 9 -16 -5 3 -18 8 -28 11 -10 4 -15 11 -12 17 8 13 9 13 31 -12z
m489 -618 c3 -5 -1 -10 -9 -10 -9 0 -16 5 -16 10 0 6 4 10 9 10 6 0 13 -4 16
-10z m-55 -100 c0 -5 -8 -10 -17 -10 -15 0 -16 2 -3 10 19 12 20 12 20 0z
m790 -62 c0 -6 -7 -7 -16 -4 -9 3 -20 6 -25 6 -5 0 -9 4 -9 9 0 4 11 6 25 3
14 -2 25 -9 25 -14z m115 13 c3 -5 1 -12 -5 -16 -5 -3 -10 1 -10 9 0 18 6 21
15 7z m-607 -67 c16 -5 22 -14 22 -34 0 -15 -6 -32 -13 -38 -7 -6 -61 -13
-120 -16 -118 -6 -123 -4 -109 49 8 29 11 30 78 36 110 9 118 9 142 3z m6
-136 c-1 -13 -3 -26 -3 -30 -1 -5 -54 -8 -120 -8 -118 0 -119 0 -123 25 -3 13
-3 27 0 30 3 3 60 5 127 5 120 0 122 0 119 -22z m22 -327 c-34 -195 -25 -542
18 -721 8 -30 19 -89 25 -130 18 -114 18 -114 24 -130 3 -8 8 -30 11 -47 5
-32 4 -33 -26 -33 -30 0 -31 1 -12 15 14 11 15 14 4 15 -12 0 -13 2 -1 9 26
17 2 27 -56 25 -32 -1 -43 0 -25 3 46 6 40 23 -10 24 l-43 1 38 8 c54 10 57
20 6 22 l-44 1 45 6 45 7 -45 11 -45 11 40 2 40 2 -40 13 -40 13 30 4 c28 5
28 5 -7 7 -20 0 -40 6 -43 11 -3 6 -1 10 4 10 6 0 11 5 11 11 0 5 -4 7 -10 4
-5 -3 -10 1 -10 10 0 9 5 13 10 10 6 -3 10 -1 10 4 0 6 -4 11 -10 11 -5 0 -20
24 -34 53 -28 59 -40 162 -56 452 -5 99 -14 196 -20 215 -7 20 -8 65 -5 107 7
72 7 72 31 62 61 -23 126 -5 174 46 l25 27 3 -43 c2 -24 -3 -81 -12 -128z
m-1223 -461 c-5 -18 -73 -79 -73 -65 0 10 63 85 71 85 4 0 5 -9 2 -20z m-88
-109 c-22 -43 -38 -49 -18 -7 9 20 20 36 25 36 5 0 2 -13 -7 -29z m1388 -508
c-7 -2 -19 -2 -25 0 -7 3 -2 5 12 5 14 0 19 -2 13 -5z"/>
<path d="M1538 1583 c6 -2 18 -2 25 0 6 3 1 5 -13 5 -14 0 -19 -2 -12 -5z"/>
<path d="M10080 6827 c0 -27 -97 -97 -135 -97 -25 0 -29 7 -26 43 3 20 -14 23
-26 4 -17 -26 -111 -56 -181 -57 -17 0 -49 -9 -69 -20 -21 -11 -57 -20 -80
-20 -36 0 -43 -3 -43 -19 0 -15 -10 -22 -42 -29 -57 -11 -92 -2 -96 26 -2 15
2 22 12 22 28 0 6 28 -35 44 -21 9 -39 20 -39 26 0 5 -9 10 -20 10 -11 0 -20
5 -20 10 0 13 26 13 52 -1 16 -8 22 -8 29 2 10 17 11 16 -33 23 -21 3 -53 0
-76 -8 -22 -8 -43 -12 -46 -9 -3 4 -6 0 -6 -9 0 -16 -40 -38 -70 -38 -10 0
-25 7 -34 15 -11 11 -35 15 -94 14 -56 -1 -88 4 -112 16 -18 9 -41 15 -51 12
-11 -3 -22 -1 -25 4 -3 5 -15 8 -27 8 -17 -1 -18 -2 -4 -6 9 -2 17 -11 17 -19
0 -8 6 -14 13 -14 7 0 18 -9 24 -19 7 -11 22 -21 35 -23 16 -2 24 -12 29 -37
10 -47 61 -91 105 -91 20 0 44 -5 55 -11 15 -8 24 -7 36 2 8 7 24 15 36 16 12
2 28 10 37 18 21 19 30 19 30 0 0 -27 18 -16 25 15 10 45 30 61 68 53 55 -11
62 -26 31 -72 -36 -55 -83 -88 -135 -96 -24 -4 -52 -11 -62 -16 -10 -6 -25 -9
-35 -8 -28 3 -52 -12 -52 -33 0 -27 -46 -66 -86 -74 -59 -11 -57 -38 4 -47 23
-4 35 -1 39 9 3 8 14 14 24 14 16 0 19 -8 19 -53 0 -52 1 -54 39 -75 22 -13
56 -22 79 -22 48 0 55 -8 47 -52 -5 -27 -15 -37 -53 -55 -83 -39 -86 -39 -179
10 -13 6 -23 17 -23 24 0 18 -18 26 -46 19 -20 -5 -24 -13 -24 -41 0 -26 4
-35 18 -36 52 -2 92 -33 92 -73 0 -27 -24 -53 -35 -36 -8 13 -75 13 -75 0 0
-15 -15 -12 -41 9 l-24 19 22 24 c15 16 20 31 16 46 -3 13 -1 22 6 22 6 0 11
5 11 11 0 6 -6 9 -14 6 -20 -8 -44 22 -27 33 10 5 10 9 2 15 -16 9 -111 -26
-111 -41 0 -10 -7 -9 -27 2 -33 16 -53 18 -53 4 0 -5 -8 -10 -18 -10 -28 0
-127 -55 -124 -69 2 -8 -4 -10 -18 -6 -13 4 -20 2 -20 -7 0 -7 -13 -28 -30
-46 -19 -21 -30 -44 -30 -62 0 -17 -7 -33 -17 -39 -17 -9 -17 -10 0 -16 22 -9
25 -90 2 -98 -34 -14 -61 -147 -35 -173 6 -6 13 -39 16 -75 6 -62 5 -66 -30
-116 -20 -29 -36 -59 -36 -67 0 -7 14 -19 30 -26 34 -14 85 0 107 30 6 9 35
27 65 40 29 14 54 28 56 32 2 4 26 11 54 14 54 7 73 28 45 49 -22 16 -24 85
-2 85 18 0 19 -12 3 -28 -8 -8 -8 -15 1 -26 15 -17 38 -9 72 25 22 22 34 23
78 8 33 -12 39 -27 19 -47 -9 -9 -8 -12 8 -12 11 0 25 5 32 12 9 9 12 4 12
-26 0 -37 0 -38 -32 -31 -18 4 -37 11 -43 15 -5 4 -27 10 -47 12 -44 5 -48 -6
-20 -55 16 -30 47 -61 83 -82 9 -5 25 -15 36 -22 16 -10 24 -7 51 15 17 15 50
39 72 54 40 28 54 68 30 83 -24 15 -2 95 36 126 10 8 39 14 73 14 l56 0 16 50
c13 40 13 52 3 62 -37 38 -22 93 26 93 24 0 30 -5 35 -30 4 -17 14 -44 22 -61
12 -25 14 -44 7 -93 -8 -55 -11 -61 -32 -61 -26 -1 -82 -47 -82 -68 0 -8 -14
-28 -30 -46 -25 -26 -29 -35 -20 -51 15 -28 53 -51 80 -48 21 3 26 -5 45 -61
16 -48 34 -77 68 -110 38 -38 52 -62 78 -136 33 -96 46 -195 35 -268 -5 -30
-29 -83 -72 -154 -95 -158 -134 -249 -134 -314 -1 -81 -54 -176 -108 -193 -10
-4 -24 -16 -29 -29 -52 -109 -69 -139 -89 -152 -40 -26 -49 -55 -54 -183 -5
-119 -6 -125 -32 -147 -15 -13 -42 -47 -60 -77 -18 -29 -45 -64 -60 -78 -25
-23 -27 -28 -18 -65 14 -60 13 -65 -20 -65 -33 0 -97 50 -111 87 -12 31 -39
41 -54 20 -16 -22 -37 -21 -68 3 -14 11 -34 20 -44 20 -26 0 -275 -245 -297
-291 -9 -20 -25 -45 -34 -55 -9 -11 -39 -44 -66 -74 -26 -30 -78 -78 -115
-107 -109 -86 -104 -78 -96 -158 15 -147 16 -142 -62 -206 -21 -16 -15 -48 19
-108 18 -31 40 -69 49 -86 20 -38 44 -49 149 -70 219 -43 213 -41 240 -74 25
-29 33 -32 129 -43 125 -15 136 -26 97 -93 -14 -24 -26 -48 -26 -54 0 -10 -15
-44 -101 -228 -22 -46 -39 -88 -39 -95 0 -7 -21 -35 -45 -63 -25 -27 -53 -70
-62 -95 -9 -25 -25 -65 -35 -90 -27 -63 -34 -137 -15 -180 15 -36 214 -312
229 -318 4 -2 8 -8 8 -13 0 -5 10 -20 23 -34 12 -15 43 -58 69 -98 26 -40 50
-77 55 -83 9 -12 15 -21 81 -129 52 -84 155 -284 166 -322 9 -28 -18 -120 -60
-205 l-32 -68 411 0 412 0 -42 36 c-24 20 -43 44 -43 55 0 11 -12 42 -27 70
-24 46 -25 55 -14 83 30 76 86 276 95 341 1 11 6 31 11 44 4 13 15 87 24 164
13 103 15 156 8 203 -8 56 -6 74 13 132 28 84 92 212 116 234 48 43 105 41
120 -5 5 -15 9 -16 17 -7 9 8 8 14 -5 21 -19 11 -25 49 -8 49 6 0 10 -4 10
-10 0 -5 9 -10 20 -10 16 0 20 -7 20 -33 0 -18 -5 -38 -11 -44 -9 -9 -6 -10
10 -6 18 4 21 11 17 29 -10 39 18 29 33 -11 15 -41 6 -158 -13 -190 -16 -24
-10 -46 10 -38 8 3 14 -1 14 -10 0 -8 5 -17 11 -19 7 -2 7 -18 -1 -53 -8 -35
-8 -51 -1 -53 14 -5 14 -109 1 -117 -18 -11 17 -35 50 -35 17 0 39 7 47 16 28
28 34 179 9 239 -9 20 -16 48 -16 61 0 13 -4 24 -10 24 -5 0 -10 5 -10 12 0
17 -62 148 -70 148 -4 0 -11 20 -15 45 -3 25 -14 69 -24 98 -26 73 -44 192
-37 231 10 54 52 131 80 145 20 11 34 12 63 3 21 -6 62 -14 92 -18 42 -5 52
-4 46 6 -4 7 -2 16 6 20 7 5 14 14 15 22 4 22 26 82 40 110 18 34 18 72 -1 88
-19 16 -19 59 0 84 20 26 19 71 -1 90 -8 9 -19 16 -23 16 -19 0 -51 43 -51 70
0 37 24 60 63 60 18 0 42 3 55 6 l22 6 0 1324 0 1323 -22 46 c-12 25 -29 47
-38 50 -19 6 -45 50 -54 90 -14 64 40 138 83 115 11 -5 22 -10 25 -10 3 0 6
229 6 509 0 433 -2 510 -15 521 -8 6 -18 9 -23 6 -17 -10 -117 28 -120 47 -2
11 3 17 13 17 12 0 16 6 13 18 -3 11 1 30 8 43 7 13 13 41 14 63 0 37 1 38 30
34 27 -4 30 -2 36 31 3 20 9 52 13 71 9 42 4 60 -15 60 -8 0 -14 6 -14 13 0
18 -59 67 -81 67 -10 0 -19 -6 -19 -13z m-230 -298 c0 -4 -7 -14 -15 -22 -8
-8 -11 -17 -8 -21 4 -3 -8 -6 -26 -6 -20 0 -30 4 -26 11 4 6 0 9 -10 7 -30 -5
-28 21 5 53 l31 32 25 -23 c13 -13 24 -27 24 -31z m-395 -238 c3 -6 4 -15 0
-21 -8 -12 -35 -1 -35 15 0 6 -9 20 -20 30 -27 24 -25 37 8 57 l27 17 7 -44
c3 -24 9 -49 13 -54z m595 73 c0 -8 7 -17 15 -20 9 -4 15 -19 15 -35 0 -33 -6
-36 -29 -14 -9 8 -34 20 -56 27 -45 15 -52 37 -17 54 28 14 72 6 72 -12z
m-1320 -525 c0 -41 0 -41 -22 -27 -13 9 -24 27 -26 42 -3 22 0 26 22 26 24 0
26 -4 26 -41z m-143 -237 c7 -4 19 -24 27 -44 14 -34 14 -36 -8 -57 -23 -22
-46 -28 -46 -12 0 5 -10 11 -22 13 -33 4 -33 29 -1 71 30 39 32 40 50 29z
m133 -32 c0 -5 -9 -10 -20 -10 -11 0 -20 5 -20 10 0 6 9 10 20 10 11 0 20 -4
20 -10z m1348 -192 c7 -7 12 -24 12 -38 0 -14 -5 -31 -12 -38 -19 -19 -66 -15
-78 7 -14 27 -13 34 10 59 23 24 50 28 68 10z m-1331 -2260 c34 -32 29 -43
-28 -56 -68 -16 -69 -16 -69 16 0 20 8 31 33 44 41 21 37 22 64 -4z m194
-1740 c6 -85 -15 -214 -37 -222 -34 -13 -84 84 -70 138 14 56 104 126 107 84z"/>
<path d="M9440 6795 c0 -29 34 -36 44 -9 8 21 -1 34 -25 34 -14 0 -19 -7 -19
-25z"/>
<path d="M3405 6800 c3 -5 8 -10 11 -10 2 0 4 5 4 10 0 6 -5 10 -11 10 -5 0
-7 -4 -4 -10z"/>
<path d="M3440 6550 c6 -11 13 -20 16 -20 2 0 0 9 -6 20 -6 11 -13 20 -16 20
-2 0 0 -9 6 -20z"/>
<path d="M3385 6530 c-3 -5 3 -10 14 -10 12 0 21 -6 21 -13 0 -7 8 -20 18 -29
29 -28 41 -46 35 -51 -7 -7 40 -89 61 -107 9 -7 16 -20 16 -29 0 -19 56 -127
70 -136 4 -3 11 6 14 19 6 26 -11 76 -26 76 -4 0 -8 7 -8 15 0 8 -4 15 -10 15
-5 0 -10 5 -10 11 0 24 -103 179 -157 236 -14 16 -30 17 -38 3z"/>
<path d="M8640 6530 c0 -5 -6 -10 -13 -10 -17 0 -59 -44 -50 -53 20 -21 93 3
126 42 24 29 22 31 -23 31 -22 0 -40 -4 -40 -10z"/>
<path d="M3490 6495 c13 -14 26 -23 28 -20 7 7 -29 45 -41 45 -6 0 0 -11 13
-25z"/>
<path d="M3595 6341 c-3 -5 -1 -12 5 -16 5 -3 10 1 10 9 0 18 -6 21 -15 7z"/>
<path d="M8620 6270 c0 -5 5 -10 10 -10 17 0 11 -25 -10 -43 -15 -12 -20 -28
-18 -59 l1 -43 4 40 c4 36 8 42 46 58 23 9 48 17 55 17 6 0 12 5 12 11 0 7 8
18 18 25 15 12 8 13 -50 14 -39 0 -68 -4 -68 -10z"/>
<path d="M4965 6140 c-85 -6 -164 -35 -216 -82 -39 -35 -73 -152 -73 -258 -1
-80 2 -89 36 -150 85 -151 101 -291 47 -395 l-27 -51 26 -12 c14 -6 28 -9 31
-4 8 10 73 17 162 17 l76 0 39 -42 39 -42 58 15 c46 12 61 13 73 3 8 -6 18 -8
22 -4 4 4 -10 21 -31 39 -64 52 -101 96 -118 139 -16 40 -18 42 -65 45 -58 4
-95 34 -120 97 -21 56 -9 103 36 133 46 31 84 29 109 -7 12 -16 21 -33 21 -38
0 -21 39 -45 60 -38 21 7 50 59 50 91 0 9 18 36 40 61 31 35 40 54 40 82 0 43
2 45 65 97 71 58 86 64 160 64 66 0 66 0 63 27 -3 22 -18 35 -103 79 -55 30
-115 61 -134 69 -18 9 -50 27 -70 39 -40 26 -150 35 -296 26z"/>
<path d="M3129 6076 c-2 -2 -39 -9 -83 -15 -80 -11 -136 -39 -136 -67 0 -17
32 -17 135 -1 42 6 84 20 105 34 19 13 41 23 48 23 7 0 11 4 8 9 -4 5 0 12 6
14 7 3 -8 6 -33 6 -25 1 -48 -1 -50 -3z"/>
<path d="M3076 5955 c-64 -11 -119 -52 -114 -84 1 -9 -1 -22 -5 -28 -12 -20 0
-31 28 -25 21 4 25 1 25 -21 0 -25 20 -37 68 -37 19 0 21 2 10 20 -14 22 -9
30 21 33 11 1 21 4 21 8 0 8 96 31 140 33 57 3 51 25 -25 83 -17 14 -44 11
-38 -3 2 -7 10 -11 18 -8 7 3 19 -1 26 -9 8 -7 22 -18 33 -24 11 -6 14 -13 8
-17 -6 -3 -17 1 -25 9 -9 8 -21 15 -27 15 -6 0 -21 6 -33 14 -12 8 -31 16 -42
18 -11 2 -22 10 -25 18 -4 13 -14 14 -64 5z m104 -75 c0 -5 -4 -10 -10 -10 -5
0 -10 5 -10 10 0 6 5 10 10 10 6 0 10 -4 10 -10z"/>
<path d="M3155 5950 c3 -5 8 -10 11 -10 2 0 4 5 4 10 0 6 -5 10 -11 10 -5 0
-7 -4 -4 -10z"/>
<path d="M6190 5934 c-71 -23 -139 -59 -148 -77 -22 -42 -53 -191 -73 -341
-18 -136 -18 -165 -7 -289 11 -127 11 -141 -6 -171 -9 -18 -31 -40 -47 -50
-74 -44 -149 -146 -149 -203 0 -15 -9 -51 -19 -78 -17 -45 -42 -143 -58 -230
-7 -35 -28 -54 -63 -55 -14 0 -70 -16 -125 -35 -155 -53 -186 -97 -218 -305
-14 -94 -17 -532 -4 -640 15 -124 40 -235 73 -330 30 -85 39 -100 88 -145 30
-27 56 -59 58 -70 5 -29 67 -24 224 15 69 17 127 30 129 28 1 -2 10 -18 19
-36 10 -18 26 -42 37 -53 18 -18 18 -20 2 -38 -49 -54 -49 -55 -16 -48 50 10
143 -48 175 -108 6 -11 -14 4 -45 33 -53 49 -77 63 -77 43 0 -18 29 -78 44
-91 22 -17 20 -1 -1 23 -17 19 -17 20 5 8 32 -17 30 -64 -5 -90 -26 -19 -27
-20 -6 -21 35 0 50 10 48 33 -1 14 -1 15 2 4 6 -26 36 -17 44 13 l7 25 1 -27
c1 -33 -44 -68 -88 -68 -17 0 -30 -3 -30 -8 5 -30 -2 -34 -42 -28 l-41 7 7
-31 c8 -35 -11 -48 -44 -30 -19 10 -21 8 -21 -25 0 -35 -1 -36 -32 -33 -24 2
-33 -1 -36 -14 -2 -13 5 -17 35 -20 21 -2 -122 -7 -317 -12 -195 -4 -386 -11
-425 -15 -93 -10 663 -11 775 -2 47 5 71 9 53 9 -17 1 -34 5 -36 10 -3 4 46 6
109 4 102 -3 115 -5 125 -23 6 -11 18 -29 27 -39 56 -60 63 -71 57 -81 -6 -8
-10 -7 -17 2 -6 9 -7 4 -3 -17 5 -26 2 -34 -20 -48 -26 -17 -27 -17 -20 3 11
36 -3 42 -47 20 -53 -27 -59 -19 -7 11 37 20 40 24 23 33 -12 7 -193 11 -509
11 l-490 1 -52 -25 c-29 -14 -53 -28 -53 -32 0 -5 -5 -8 -11 -8 -6 0 -63 -31
-126 -70 -63 -38 -119 -70 -124 -70 -5 0 -9 -4 -9 -9 0 -5 -25 -26 -55 -46
-30 -21 -55 -42 -55 -47 0 -4 22 -24 48 -43 57 -41 69 -63 83 -160 11 -73 9
-89 -37 -252 -5 -18 -2 -23 12 -23 11 0 30 -9 44 -20 14 -11 31 -20 38 -20 6
0 20 -8 30 -18 34 -32 82 -63 82 -51 0 6 -9 24 -21 40 -17 24 -18 29 -5 29 9
0 16 -4 16 -9 0 -14 25 -20 41 -10 12 8 11 9 -1 7 -9 -2 -16 1 -17 6 -1 5 -7
13 -15 17 -9 6 -6 9 10 9 13 0 20 -4 17 -10 -3 -6 1 -7 10 -4 8 4 36 1 61 -5
26 -7 48 -10 50 -8 7 6 -18 71 -30 79 -7 5 -6 8 3 8 11 0 12 3 4 11 -7 7 -21
4 -46 -11 -29 -17 -40 -19 -57 -10 l-22 12 20 14 c12 8 25 13 29 12 11 -4 48
25 48 37 0 6 7 20 15 32 13 17 22 20 48 15 18 -4 33 -10 33 -15 -1 -4 -1 -13
-1 -21 0 -7 -14 -20 -31 -29 -20 -9 -27 -17 -19 -22 6 -4 17 -2 23 4 17 17 31
13 17 -4 -17 -20 -1 -19 22 2 11 9 18 11 18 5 0 -7 6 -12 13 -12 8 0 22 -9 32
-20 10 -11 23 -20 28 -20 5 0 16 -8 23 -17 7 -10 16 -15 20 -11 3 4 -7 23 -25
43 -35 40 -37 45 -18 45 7 0 26 -22 42 -50 29 -50 45 -63 45 -35 0 8 -5 15
-11 15 -5 0 -7 5 -4 10 4 7 14 2 26 -11 22 -26 25 -41 5 -33 -8 3 -17 1 -21
-5 -3 -6 -1 -11 4 -11 6 0 11 -6 11 -14 0 -16 39 -66 40 -51 0 6 -5 16 -10 21
-6 6 -7 30 -4 58 l7 47 13 -28 c16 -36 35 -116 40 -173 3 -33 1 -40 -5 -25 -8
17 -10 15 -10 -13 -1 -19 -5 -31 -11 -27 -6 4 -10 -7 -10 -24 0 -25 -4 -31
-22 -31 -18 0 -20 -2 -8 -9 8 -6 18 -7 22 -5 4 3 8 -1 8 -10 0 -8 -6 -17 -12
-19 -10 -4 -9 -6 1 -6 23 -2 -8 -31 -34 -31 -18 0 -22 -6 -23 -35 -1 -20 -9
-51 -18 -70 -20 -43 -106 -131 -137 -141 -12 -4 -24 -10 -27 -15 -3 -5 -30
-22 -60 -39 -65 -35 -63 -37 16 -10 43 14 54 16 40 5 -11 -8 -26 -15 -34 -15
-13 0 -14 -24 -8 -163 5 -132 3 -179 -10 -243 -22 -104 -14 -240 15 -288 12
-18 21 -41 21 -50 0 -15 142 -16 1797 -16 1795 0 1796 0 1778 20 -10 11 -24
20 -31 20 -7 0 -14 3 -16 8 -5 12 -98 72 -112 72 -7 0 -19 7 -26 15 -7 8 -17
15 -22 15 -5 0 -24 11 -42 25 -18 14 -38 25 -44 25 -6 0 -12 4 -14 8 -7 17
-192 152 -208 152 -6 0 -10 4 -10 8 0 4 -22 19 -50 33 -27 13 -50 27 -50 32 0
4 -6 7 -14 7 -8 0 -16 3 -18 8 -1 4 -48 37 -103 74 -118 78 -181 122 -292 203
-96 70 -247 175 -271 190 -9 6 -47 30 -85 55 -37 25 -83 54 -100 65 -98 60
-249 172 -301 220 -32 31 -71 59 -86 62 -47 9 -55 50 -67 318 -10 238 -10 237
23 495 13 96 15 168 10 310 -10 305 -10 301 -44 372 -19 39 -34 88 -38 125 -5
45 -11 63 -27 73 -21 13 -312 110 -331 110 -20 1 -106 47 -99 54 3 3 0 6 -7 6
-31 0 11 24 52 29 51 7 61 31 27 67 -22 24 -24 35 -16 113 3 33 -29 53 -47 29
-7 -10 -23 -18 -34 -18 -15 0 -20 -5 -16 -15 8 -20 -24 -19 -50 0 -17 13 -18
15 -3 15 10 0 17 8 17 19 0 15 10 19 56 25 46 5 60 12 82 38 36 42 117 77 180
76 27 0 58 4 68 10 11 5 35 12 54 15 31 4 37 2 48 -21 6 -14 12 -43 12 -64 0
-21 5 -38 10 -38 19 0 68 64 80 104 13 42 4 56 -35 56 -34 0 -104 34 -109 53
-4 15 -12 17 -58 11 -65 -8 -104 9 -143 60 -19 25 -25 44 -23 68 5 50 32 48
83 -7 48 -51 65 -51 65 -2 0 55 -30 97 -80 114 -25 8 -59 28 -75 44 -36 34
-49 36 -68 9 -17 -25 -58 -40 -107 -40 -29 0 -41 6 -53 24 -10 15 -29 25 -57
30 -30 5 -43 13 -52 31 -10 22 -17 25 -70 25 -46 0 -69 6 -112 30 -39 23 -60
29 -83 24 -28 -5 -30 -4 -31 25 0 17 4 33 9 36 5 4 9 1 9 -5 0 -7 6 -8 19 -1
13 8 20 27 25 71 l7 60 79 -1 c78 -2 79 -3 137 -51 32 -27 76 -65 98 -86 84
-78 79 -75 115 -57 27 14 37 15 63 4 16 -7 51 -13 77 -13 31 -1 55 -7 67 -19
25 -22 51 -22 75 0 17 15 24 15 61 4 112 -33 125 -35 150 -18 14 9 28 28 31
43 4 15 16 39 27 52 36 46 27 57 -49 58 -37 1 -69 -2 -72 -6 -3 -4 -32 -9 -65
-10 -102 -4 -94 -11 -89 87 2 49 8 89 14 91 5 2 10 21 10 43 0 37 -2 39 -32
40 -31 1 -32 1 -8 9 l25 8 -25 1 c-14 1 -71 10 -128 21 -56 11 -118 20 -136
20 -30 0 -34 -4 -45 -42 -17 -59 -34 -98 -44 -98 -4 0 -7 35 -6 79 1 59 -3 85
-16 104 -11 17 -15 36 -11 52 6 25 7 25 121 25 62 0 116 3 118 8 2 4 0 51 -5
105 -12 125 -7 143 31 99 16 -18 39 -58 52 -90 13 -31 30 -64 38 -72 12 -13
13 -9 9 32 -6 54 2 106 26 160 13 30 14 40 3 49 -9 9 -11 31 -6 85 6 59 12 78
33 101 22 24 26 37 26 91 0 36 -6 72 -14 85 -8 12 -17 45 -21 72 -7 55 -39
122 -69 145 -61 48 -76 69 -76 107 0 33 7 45 55 90 41 39 66 54 95 59 l39 6
-22 40 c-58 105 -187 171 -277 142z m-216 -3809 c-22 -16 -89 -20 -79 -5 3 6
14 10 23 10 9 0 28 6 42 13 30 16 40 2 14 -18z m-115 -66 c-25 -20 -64 -22
-64 -4 0 12 66 35 79 27 5 -2 -2 -13 -15 -23z m-85 -38 c3 -4 -8 -20 -24 -35
-25 -22 -34 -25 -51 -16 -27 15 -19 33 22 47 42 15 47 15 53 4z m431 -31 c4
-6 13 -63 21 -128 8 -64 26 -164 40 -222 15 -60 27 -138 27 -182 2 -71 0 -80
-23 -103 l-26 -25 -42 31 c-24 17 -49 47 -58 67 -20 49 -20 209 1 285 8 32 15
98 15 147 0 88 11 140 29 140 5 0 13 -5 16 -10z m-535 -35 c0 -19 -54 -47 -74
-39 -9 3 -16 9 -16 13 0 9 37 28 65 34 11 3 21 5 23 6 1 0 2 -6 2 -14z m-100
-59 c0 -22 -49 -49 -76 -42 -30 8 -31 19 -1 34 51 25 77 27 77 8z m-106 -54
c13 -21 -44 -57 -74 -47 -35 11 -17 39 30 48 14 2 28 5 32 6 4 0 9 -3 12 -7z
m-101 -72 c-3 -11 -11 -20 -19 -20 -37 0 -24 -36 35 -97 17 -18 31 -38 31 -45
0 -7 -5 -6 -12 4 -7 8 -40 21 -73 28 -33 7 -65 20 -72 29 -9 12 -12 12 -13 2
0 -15 -45 -8 -68 12 -19 15 23 46 61 47 20 0 30 6 34 20 5 20 42 38 80 39 16
1 20 -3 16 -19z m-203 -112 c0 -5 0 -14 0 -21 0 -18 -43 -37 -69 -30 -27 7
-27 37 1 55 22 15 67 11 68 -4z m130 -28 c0 -5 -2 -10 -4 -10 -3 0 -8 5 -11
10 -3 6 -1 10 4 10 6 0 11 -4 11 -10z m19 -60 c15 0 10 -22 -6 -27 -6 -2 -14
5 -18 16 -3 12 -11 21 -16 21 -6 0 -7 5 -3 12 5 8 11 6 19 -5 7 -10 18 -17 24
-17z m84 -62 c-8 -29 -21 -66 -29 -83 l-13 -30 6 28 c3 15 6 40 7 55 1 23 31
82 42 82 1 0 -4 -24 -13 -52z m-53 27 c0 -8 -4 -15 -10 -15 -5 0 -10 7 -10 15
0 8 5 15 10 15 6 0 10 -7 10 -15z m10 -355 c0 -5 -4 -10 -10 -10 -5 0 -10 5
-10 10 0 6 5 10 10 10 6 0 10 -4 10 -10z m-54 -122 c4 -6 3 -8 -4 -4 -6 4 -12
-5 -15 -21 -4 -26 -4 -26 -6 5 -1 32 11 42 25 20z m-26 -74 c0 -8 -5 -12 -10
-9 -6 4 -8 11 -5 16 9 14 15 11 15 -7z m889 -350 c15 -9 37 -31 50 -50 13 -19
30 -34 37 -34 9 0 14 -11 14 -27 0 -16 7 -48 15 -73 71 -216 79 -266 49 -291
-26 -22 -249 -19 -300 4 -42 19 -50 30 -103 132 -30 57 -31 64 -26 145 7 86
19 130 39 130 6 1 47 19 91 40 92 45 97 46 134 24z m375 1 c42 -18 57 -39 87
-120 12 -33 40 -85 64 -115 54 -71 65 -92 65 -129 0 -42 -37 -67 -110 -76
-117 -14 -171 10 -195 87 -44 139 -91 238 -112 238 -22 0 -16 51 7 57 11 3 20
9 20 13 0 11 99 60 121 60 9 0 33 -7 53 -15z"/>
<path d="M3572 5760 c0 -14 2 -19 5 -12 2 6 2 18 0 25 -3 6 -5 1 -5 -13z"/>
<path d="M2625 5680 c-3 -5 -1 -10 4 -10 6 0 11 5 11 10 0 6 -2 10 -4 10 -3 0
-8 -4 -11 -10z"/>
<path d="M3064 5524 c3 -9 6 -22 6 -30 0 -8 6 -14 13 -14 6 0 43 -30 80 -66
38 -36 84 -72 102 -80 30 -12 34 -19 37 -56 4 -54 24 -60 37 -11 6 21 11 43
11 49 0 7 -42 45 -92 85 -51 41 -102 82 -113 92 -18 16 -72 47 -83 47 -2 0 -1
-7 2 -16z"/>
<path d="M3692 5515 c0 -16 2 -22 5 -12 2 9 2 23 0 30 -3 6 -5 -1 -5 -18z"/>
<path d="M3746 5453 c2 -80 1 -82 -5 -28 -7 58 -8 59 -9 15 -2 -28 -5 -40 -11
-32 -6 10 -10 10 -21 -2 -7 -9 -17 -13 -23 -9 -6 3 -7 1 -3 -5 4 -7 -3 -17
-19 -24 -21 -10 -31 -9 -54 5 l-29 17 -7 -66 c-8 -74 -39 -167 -84 -246 -28
-51 -30 -62 -40 -238 -15 -250 -23 -301 -65 -400 -20 -47 -36 -91 -36 -98 0
-7 -9 -31 -20 -53 -22 -41 -20 -59 6 -59 12 0 14 -8 9 -37 -3 -21 -8 -46 -11
-55 -4 -14 0 -16 31 -11 31 5 35 4 28 -12 -5 -14 -3 -17 9 -12 28 10 29 -5 3
-39 -22 -29 -23 -34 -10 -47 30 -31 1 -132 -62 -212 -4 -5 -9 -17 -11 -26 -1
-9 43 29 98 83 55 55 100 105 100 111 0 7 -5 19 -10 27 -11 18 24 60 52 60 21
0 22 1 6 35 -6 14 -18 25 -27 26 -11 0 -12 2 -3 6 19 7 62 -25 62 -46 0 -12
-14 -26 -37 -38 -36 -17 -38 -21 -35 -58 3 -37 -1 -44 -53 -93 l-55 -53 -2
-117 c0 -64 -3 -102 -5 -85 -3 20 -12 37 -25 44 l-20 11 21 15 c17 11 21 24
20 62 l-2 49 -28 -30 c-16 -15 -38 -46 -49 -68 -11 -21 -24 -41 -30 -45 -16
-10 -12 -45 5 -45 8 0 15 -7 15 -16 0 -12 -6 -15 -23 -10 -21 5 -25 1 -36 -37
-7 -23 -17 -50 -22 -59 -6 -12 -4 -22 7 -33 23 -22 11 -49 -16 -35 -17 9 -20
8 -20 -12 0 -13 -7 -35 -15 -51 -14 -27 -14 -28 25 -43 22 -9 40 -20 40 -25 0
-12 0 -12 -50 6 -47 16 -62 19 -43 7 7 -4 14 -19 15 -32 4 -30 19 -44 30 -27
11 18 10 29 -4 21 -7 -4 -8 -3 -4 4 14 23 26 12 26 -22 l0 -34 -42 5 c-32 3
-39 2 -28 -6 16 -11 20 -30 9 -46 -14 -20 -22 -205 -19 -430 8 -625 5 -1082
-7 -1106 -20 -38 -63 -232 -63 -281 0 -24 -4 -48 -9 -53 -5 -6 -12 -45 -16
-89 l-8 -78 24 13 c13 7 69 56 124 109 109 106 226 217 312 296 55 51 66 71
108 206 11 33 21 48 36 50 15 2 27 17 39 50 9 25 27 60 39 77 12 16 27 44 32
61 8 22 17 30 34 30 20 0 75 49 101 91 8 12 86 39 113 39 5 0 23 -12 40 -26
24 -20 31 -34 31 -62 0 -21 7 -46 15 -56 8 -11 15 -26 15 -33 0 -14 15 -34 64
-84 20 -21 32 -27 39 -20 8 8 4 18 -12 35 -27 28 -42 86 -29 110 7 12 5 14 -6
10 -17 -7 -75 34 -75 54 -1 11 170 186 217 222 54 42 372 354 372 366 0 8 5
14 10 14 6 0 10 14 10 30 0 20 5 30 15 30 8 0 15 -5 15 -11 0 -5 -4 -7 -10 -4
-5 3 -10 -1 -10 -9 0 -17 25 -22 35 -7 3 5 19 12 35 16 17 4 30 10 30 14 0 3
18 6 40 6 28 0 39 3 36 12 -3 6 0 10 7 7 7 -2 13 6 13 21 1 14 -2 25 -7 25 -5
0 -9 10 -9 21 0 18 -2 20 -15 9 -11 -9 -14 -22 -9 -43 5 -25 4 -28 -8 -17 -8
8 -12 25 -10 42 3 21 0 28 -13 28 -11 0 -15 -5 -12 -15 4 -8 2 -17 -2 -20 -5
-2 -11 8 -14 23 -3 15 -1 30 5 33 7 4 7 9 0 13 -6 4 -9 13 -5 22 4 11 9 12 18
4 16 -14 26 0 20 28 -2 12 0 24 5 27 4 3 6 14 3 25 -3 11 2 31 10 44 15 22 15
25 -4 42 -10 9 -22 14 -26 10 -4 -4 -1 -12 7 -17 12 -8 10 -10 -8 -6 -12 3
-20 2 -17 -3 7 -11 -37 -54 -58 -58 -9 -2 -17 2 -17 8 0 5 6 10 14 10 7 0 16
8 19 19 3 14 0 18 -17 14 -19 -3 -19 -2 2 7 18 8 22 15 17 31 -6 18 -4 21 9
16 12 -5 16 0 16 18 0 14 5 25 11 25 6 0 9 6 6 13 -19 47 -20 50 -9 43 7 -4
12 -2 12 3 0 17 -28 13 -38 -5 -8 -15 -10 -15 -15 0 -4 10 -1 16 7 16 8 0 17
7 20 16 8 22 8 26 -4 19 -5 -3 -10 0 -10 7 0 8 -7 23 -16 34 -8 10 -13 13 -9
7 3 -7 2 -13 -3 -13 -6 0 -13 7 -16 16 -4 9 -9 14 -12 11 -11 -11 16 -46 31
-41 8 4 15 1 15 -5 0 -18 -24 -13 -48 9 -24 23 -30 66 -9 73 18 6 16 67 -3 67
-11 0 -11 3 -2 12 14 14 16 32 3 24 -5 -4 -7 3 -4 15 4 16 8 17 14 7 5 -7 6 1
3 22 -3 19 -5 45 -5 57 0 15 -4 21 -13 17 -9 -3 -19 9 -29 33 l-16 38 1 -45
c2 -101 -5 -88 -18 35 -14 141 -33 197 -69 213 -13 6 -42 27 -63 47 -22 19
-48 35 -58 36 -11 0 -14 3 -6 6 22 9 2 23 -31 22 -18 -1 -24 -3 -14 -6 9 -2
17 -13 17 -23 0 -10 15 -31 33 -47 43 -39 77 -88 76 -110 0 -11 -3 -13 -6 -5
-2 6 -11 12 -19 12 -8 0 -14 7 -14 15 0 8 -3 14 -8 13 -4 -2 -41 31 -82 73
-41 41 -92 88 -113 103 -35 27 -38 28 -56 12 -19 -17 -39 -7 -26 13 6 10 -15
34 -43 51 -14 8 -15 11 -3 19 10 6 5 11 -20 19 -70 21 -79 21 -79 1 0 -10 -7
-34 -16 -52 -16 -32 -15 -35 8 -73 13 -21 31 -57 41 -78 15 -33 16 -37 3 -27
-9 8 -16 19 -16 25 0 6 -14 27 -30 46 -16 19 -30 38 -30 41 0 3 -11 4 -25 1
-32 -6 -32 5 1 30 14 12 23 27 20 35 -3 8 -1 24 5 36 10 17 8 24 -11 39 -21
17 -22 23 -14 86 11 87 9 220 -6 301 -12 68 -36 125 -49 117 -8 -5 -31 36 -31
54 0 5 -27 69 -61 141 -69 149 -72 170 -13 94 l16 -20 -7 20 c-4 11 -18 60
-32 109 -13 49 -29 98 -36 110 -11 20 -12 66 -4 303 1 34 -3 67 -9 73 -7 7
-10 -15 -8 -77z m-141 -599 c25 -60 63 -145 85 -188 22 -44 37 -82 35 -85 -6
-6 -1 -12 -74 92 -79 111 -100 159 -107 244 -7 88 4 78 61 -63z m62 -67 c-2
-7 -12 5 -21 27 -22 54 -19 69 5 23 11 -21 18 -44 16 -50z m148 -217 l5 -45
-34 72 c-19 39 -40 89 -46 110 -7 21 -16 46 -21 55 -5 10 -9 26 -8 35 1 32 98
-181 104 -227z m-127 -35 c-3 -3 -13 7 -23 22 l-17 28 23 -22 c12 -12 20 -25
17 -28z m77 -15 c27 -54 30 -64 15 -55 -12 7 -50 79 -50 95 0 20 10 9 35 -40z
m-23 -164 c-7 -13 -32 24 -32 48 0 18 3 16 19 -9 10 -16 16 -34 13 -39z m-125
32 c-3 -8 -6 -5 -6 6 -1 11 2 17 5 13 3 -3 4 -12 1 -19z m39 -109 c10 -24 17
-65 17 -91 0 -26 3 -45 7 -43 9 5 35 -46 45 -88 8 -29 25 -47 25 -25 0 7 6 2
13 -12 12 -23 18 -25 85 -25 40 0 72 -3 72 -7 0 -20 -116 -27 -162 -9 -14 5
-31 24 -38 43 -22 54 -52 88 -77 88 -23 0 -31 14 -14 25 5 3 8 23 6 45 -3 30
0 38 11 33 22 -8 17 12 -11 45 -15 18 -21 33 -16 37 7 4 7 15 1 31 -6 14 -10
28 -10 32 0 14 30 -37 46 -79z m-36 -55 c0 -14 -3 -14 -15 -4 -8 7 -15 14 -15
16 0 2 7 4 15 4 8 0 15 -7 15 -16z m-15 -63 c-8 -13 -35 -15 -35 -2 0 5 8 11
18 13 21 5 26 2 17 -11z m516 -91 c5 -4 11 -22 14 -40 l5 -35 -11 30 c-7 17
-18 33 -25 38 -7 4 -10 15 -7 24 5 14 8 14 11 2 3 -7 9 -16 13 -19z m-296 -50
c3 -5 1 -10 -4 -10 -6 0 -11 5 -11 10 0 6 2 10 4 10 3 0 8 -4 11 -10z m429
-71 c9 -23 15 -44 12 -46 -7 -8 -26 7 -26 20 0 7 -7 24 -14 40 -12 22 -12 27
-1 27 7 0 20 -19 29 -41z m-734 -50 c-7 -11 -14 -18 -17 -15 -3 3 0 12 7 21
18 21 23 19 10 -6z m759 -30 c-15 -9 -32 -2 -24 11 3 5 13 6 21 3 12 -4 13 -8
3 -14z m-624 -39 c3 -5 1 -10 -4 -10 -6 0 -11 5 -11 10 0 6 2 10 4 10 3 0 8
-4 11 -10z m635 -11 c0 -5 -4 -9 -10 -9 -5 0 -10 7 -10 16 0 8 5 12 10 9 6 -3
10 -10 10 -16z m-671 -53 c-9 -8 -10 -7 -5 7 3 10 7 26 7 35 1 9 4 6 6 -7 3
-13 -1 -28 -8 -35z m685 -21 c5 -21 4 -27 -3 -20 -6 6 -13 26 -16 45 -7 42 8
21 19 -25z m-658 0 c0 -14 -4 -25 -8 -25 -4 0 -5 -21 -1 -47 4 -34 3 -44 -5
-39 -15 9 -16 75 -2 110 12 33 18 33 16 1z m228 -60 c5 -19 4 -26 -2 -20 -5 6
-12 26 -16 45 -7 41 8 21 18 -25z m-214 -75 c0 -5 -2 -10 -4 -10 -3 0 -8 5
-11 10 -3 6 -1 10 4 10 6 0 11 -4 11 -10z m17 -12 c-3 -8 -6 -5 -6 6 -1 11 2
17 5 13 3 -3 4 -12 1 -19z m-290 -34 c5 -13 7 -13 14 -2 6 8 9 -4 8 -32 0 -38
-2 -41 -10 -22 -11 29 -35 53 -43 45 -3 -4 -6 1 -6 10 0 22 29 22 37 1z m-102
-52 c-3 -3 -5 0 -5 7 0 7 -4 9 -10 6 -6 -4 -10 6 -10 22 l0 28 15 -29 c9 -16
13 -31 10 -34z m46 5 c-8 -8 -11 -7 -11 4 0 20 13 34 18 19 3 -7 -1 -17 -7
-23z m1308 -142 c-5 -12 -7 10 -7 55 l1 75 7 -55 c4 -30 3 -64 -1 -75z m-1229
80 c0 -16 -6 -25 -15 -25 -8 0 -15 -4 -15 -9 0 -5 -11 -11 -25 -13 -26 -5 -32
6 -16 31 6 9 18 12 36 7 24 -6 27 -5 22 13 -3 12 -1 21 4 21 5 0 9 -11 9 -25z
m-128 -31 c-13 -23 -25 -1 -16 28 6 19 7 19 16 5 5 -10 5 -23 0 -33z m335 4
c-3 -8 -6 -5 -6 6 -1 11 2 17 5 13 3 -3 4 -12 1 -19z m1091 -36 c6 -18 -15
-14 -22 4 -4 10 -1 14 6 12 6 -2 14 -10 16 -16z m-71 -64 c-3 -8 -6 -5 -6 6
-1 11 2 17 5 13 3 -3 4 -12 1 -19z m-1019 -14 c24 -5 31 -24 8 -24 -19 0 -27
-25 -13 -39 6 -6 7 -11 3 -11 -5 0 -3 -7 5 -16 11 -13 9 -14 -17 -8 -35 8 -43
14 -20 14 15 0 17 5 12 28 -4 15 -14 32 -22 38 -7 6 -14 13 -14 16 0 6 30 8
58 2z m-341 -26 c-3 -8 -6 -5 -6 6 -1 11 2 17 5 13 3 -3 4 -12 1 -19z m1363
12 c0 -5 -6 -10 -14 -10 -8 0 -18 5 -21 10 -3 6 3 10 14 10 12 0 21 -4 21 -10z
m-1295 -17 c19 -9 35 -23 35 -30 0 -10 -5 -11 -19 -3 -24 12 -31 13 -31 1 0
-5 12 -14 28 -19 15 -6 22 -11 15 -11 -6 -1 -23 3 -37 8 -18 8 -23 15 -19 30
3 12 1 21 -6 21 -6 0 -11 5 -11 10 0 13 3 13 45 -7z m712 11 c21 -6 40 -44 22
-44 -5 0 -9 7 -9 15 0 11 -11 15 -36 15 -21 0 -33 4 -29 10 7 11 20 12 52 4z
m556 -24 c14 0 17 -9 16 -47 -1 -27 -4 -58 -7 -70 -7 -22 -7 -22 -46 8 -22 16
-34 29 -28 29 7 0 12 10 12 23 0 15 -3 18 -8 9 -6 -9 -12 -5 -20 13 -19 42
-15 48 26 41 20 -3 45 -6 55 -6z m-560 -7 c-7 -2 -19 -2 -25 0 -7 3 -2 5 12 5
14 0 19 -2 13 -5z m707 -3 c0 -5 -6 -10 -14 -10 -8 0 -16 -5 -18 -12 -3 -7 -7
-5 -11 6 -4 9 -3 15 1 12 4 -2 14 -1 22 5 19 11 20 11 20 -1z m-1545 -68 c-3
-3 -11 0 -18 7 -9 10 -8 11 6 5 10 -3 15 -9 12 -12z m153 6 c20 -20 14 -28
-13 -16 -13 6 -22 15 -19 19 7 12 18 11 32 -3z m1422 -8 c0 -5 -2 -10 -4 -10
-3 0 -8 5 -11 10 -3 6 -1 10 4 10 6 0 11 -4 11 -10z m-60 -10 c0 -5 -4 -10
-10 -10 -5 0 -10 5 -10 10 0 6 5 10 10 10 6 0 10 -4 10 -10z m-1429 -13 c42
-32 49 -81 18 -121 -28 -35 -58 -33 -98 8 -28 29 -33 40 -28 66 4 17 12 37 19
45 16 17 67 19 89 2z m359 -19 c0 -4 -4 -8 -10 -8 -5 0 -10 4 -10 10 0 5 -7 7
-15 4 -9 -4 -15 0 -15 10 0 13 4 14 25 4 14 -6 25 -15 25 -20z m330 -32 c0 -6
-4 -5 -9 3 -7 11 -9 11 -14 0 -3 -8 -6 -3 -6 10 -1 20 1 21 14 11 8 -7 15 -18
15 -24z m-340 -80 c0 -6 -3 -6 -9 0 -5 5 -12 32 -15 59 l-6 50 15 -50 c8 -27
15 -54 15 -59z m475 64 c3 -5 2 -10 -3 -10 -6 0 -10 -6 -9 -12 1 -41 -4 -78
-12 -78 -7 0 -8 51 -2 103 1 10 19 9 26 -3z m466 -23 c-10 -9 -11 -8 -5 6 3
10 9 15 12 12 3 -3 0 -11 -7 -18z m79 13 c0 -5 -5 -10 -11 -10 -5 0 -7 -4 -4
-10 3 -5 1 -10 -4 -10 -16 0 -13 -29 4 -46 11 -12 19 -13 36 -3 22 11 39 0 39
-26 0 -5 -5 -3 -10 5 -8 12 -10 11 -10 -7 0 -13 -4 -23 -10 -23 -5 0 -10 -7
-10 -15 0 -7 -8 -19 -17 -24 -10 -6 -14 -11 -10 -11 5 0 5 -5 1 -11 -4 -8 -9
-7 -15 2 -7 12 -9 12 -9 0 0 -16 -29 -40 -47 -41 -7 0 -13 5 -13 10 0 6 7 10
15 10 8 0 17 14 21 35 3 19 11 33 17 32 18 -3 19 35 3 73 -14 32 -15 33 -17
10 -1 -14 -1 -30 0 -36 1 -7 -5 -14 -14 -18 -10 -4 -15 1 -15 15 0 13 -4 18
-12 14 -7 -4 -2 3 12 14 22 18 23 21 6 21 -15 0 -16 3 -6 15 7 8 17 12 23 8 6
-3 7 -1 3 5 -11 18 2 32 30 32 13 0 24 -4 24 -10z m-165 -70 c-2 -33 0 -62 5
-65 14 -9 12 -49 -2 -63 -15 -15 -55 -16 -63 -1 -9 14 0 22 28 22 23 0 23 1
19 90 -3 62 -1 88 6 83 7 -4 9 -30 7 -66z m210 19 c-10 -15 -25 -10 -19 6 4 8
10 12 15 9 5 -3 7 -10 4 -15z m-1046 -64 c0 -5 -4 -3 -9 5 -5 8 -9 22 -9 30 0
16 17 -16 18 -35z m387 20 c18 -14 17 -15 -11 -9 -16 4 -39 11 -50 15 -17 6
-15 8 11 8 16 1 39 -6 50 -14z m-133 -35 c3 -11 11 -20 18 -20 10 0 10 3 1 12
-27 27 -9 26 38 -2 28 -17 54 -30 58 -30 4 0 18 -12 31 -25 12 -14 27 -22 32
-19 5 3 6 -2 3 -10 -3 -9 -2 -16 4 -16 11 0 21 -20 32 -67 5 -19 4 -31 -1 -27
-5 3 -9 -3 -9 -13 -1 -10 -7 -3 -16 17 -8 19 -25 46 -37 59 -44 47 -128 102
-170 110 -41 8 -41 8 -17 19 18 8 20 11 8 11 -24 1 -23 21 1 21 10 0 21 -9 24
-20z m212 -88 c-7 -7 -35 57 -35 80 1 15 7 7 20 -26 11 -28 18 -52 15 -54z
m-91 72 c5 -14 4 -15 -9 -4 -17 14 -19 20 -6 20 5 0 12 -7 15 -16z m726 -20
c0 -8 -19 -13 -24 -6 -3 5 1 9 9 9 8 0 15 -2 15 -3z m-393 -10 c-3 -3 -12 -4
-19 -1 -8 3 -5 6 6 6 11 1 17 -2 13 -5z m28 -34 c-3 -5 -16 -10 -28 -9 -20 1
-20 2 3 9 14 4 26 8 28 9 2 1 0 -3 -3 -9z m-655 -20 c0 -5 -4 -10 -10 -10 -5
0 -10 5 -10 10 0 6 5 10 10 10 6 0 10 -4 10 -10z m1030 -5 c0 -8 -4 -15 -10
-15 -5 0 -7 7 -4 15 4 8 8 15 10 15 2 0 4 -7 4 -15z m-30 -62 c0 -7 -4 -13
-10 -13 -5 0 -10 12 -10 28 0 21 2 24 10 12 5 -8 10 -21 10 -27z m40 -9 c0
-12 -6 -21 -15 -21 -8 0 -15 6 -15 14 0 7 5 13 11 13 6 0 8 9 4 23 -5 17 -4
19 4 7 6 -8 11 -24 11 -36z m30 32 c0 -3 -4 -8 -10 -11 -5 -3 -10 -1 -10 4 0
6 5 11 10 11 6 0 10 -2 10 -4z m-1263 -128 c-3 -8 -6 -5 -6 6 -1 11 2 17 5 13
3 -3 4 -12 1 -19z m360 -30 c-3 -7 -5 -2 -5 12 0 14 2 19 5 13 2 -7 2 -19 0
-25z m460 -5 c-3 -10 -8 -30 -11 -45 -4 -16 -11 -28 -16 -28 -6 0 -10 12 -10
28 0 21 2 24 10 12 7 -11 10 -7 10 18 0 17 5 32 11 32 6 0 8 -8 6 -17z m-367
-54 c0 -6 -4 -7 -10 -4 -5 3 -10 11 -10 16 0 6 5 7 10 4 6 -3 10 -11 10 -16z
m-45 1 c3 -5 1 -10 -4 -10 -6 0 -11 5 -11 10 0 6 2 10 4 10 3 0 8 -4 11 -10z
m255 -20 c0 -11 -2 -20 -4 -20 -2 0 -6 9 -9 20 -3 11 -1 20 4 20 5 0 9 -9 9
-20z m-653 -12 c-3 -8 -6 -5 -6 6 -1 11 2 17 5 13 3 -3 4 -12 1 -19z m754 -89
c-8 -38 -9 -40 -10 -12 -1 17 2 39 5 48 11 29 14 10 5 -36z m-744 -56 c-3 -10
-5 -2 -5 17 0 19 2 27 5 18 2 -10 2 -26 0 -35z m0 -45 c-3 -8 -6 -5 -6 6 -1
11 2 17 5 13 3 -3 4 -12 1 -19z m438 -28 c3 -5 1 -10 -4 -10 -6 0 -11 5 -11
10 0 6 2 10 4 10 3 0 8 -4 11 -10z m-667 -95 c6 -14 8 -25 3 -25 -5 0 -16 11
-25 25 -13 20 -14 25 -3 25 8 0 19 -11 25 -25z m-151 -57 c-3 -7 -5 -2 -5 12
0 14 2 19 5 13 2 -7 2 -19 0 -25z"/>
<path d="M4586 3215 c-6 -17 2 -45 14 -45 4 0 7 13 6 30 -1 32 -10 39 -20 15z"/>
<path d="M3230 3102 c0 -18 5 -32 10 -32 6 0 8 11 4 28 -10 39 -14 40 -14 4z"/>
<path d="M4631 3074 c0 -11 3 -14 6 -6 3 7 2 16 -1 19 -3 4 -6 -2 -5 -13z"/>
<path d="M3976 2922 c82 -66 94 -73 94 -52 0 6 -4 10 -9 10 -6 0 -22 11 -36
24 -14 13 -36 26 -48 29 l-22 6 21 -17z"/>
<path d="M4102 2810 c13 -21 24 -38 25 -36 6 6 -23 66 -34 70 -8 4 -4 -10 9
-34z"/>
<path d="M2537 5496 c-18 -20 -39 -36 -46 -36 -6 0 -11 -6 -11 -14 0 -8 -7
-16 -14 -19 -11 -4 -13 -16 -9 -42 5 -34 2 -40 -44 -83 -53 -50 -69 -85 -50
-109 51 -61 77 -74 77 -37 0 8 2 14 5 14 10 0 93 -46 148 -82 32 -21 64 -38
71 -38 7 0 34 -11 60 -25 34 -18 63 -25 102 -25 55 0 76 14 28 18 -15 1 -32
10 -39 19 -12 16 -8 19 31 29 69 17 64 24 -17 23 -105 -2 -115 0 -129 16 -10
12 -16 13 -27 4 -11 -10 -20 -5 -43 22 -20 25 -24 35 -14 37 8 2 14 10 14 18
0 8 9 14 20 14 11 0 20 -5 20 -11 0 -8 4 -8 13 -2 6 5 45 10 86 11 57 2 77 6
87 19 16 22 2 33 -44 33 -35 0 -316 -37 -344 -46 -32 -10 -20 26 24 72 23 24
48 44 55 44 7 0 13 11 13 25 0 14 5 24 12 23 8 -2 15 19 19 58 4 34 9 70 11
80 5 32 -28 27 -65 -10z"/>
<path d="M5024 5519 c-3 -6 -1 -16 5 -22 8 -8 11 -5 11 11 0 24 -5 28 -16 11z"/>
<path d="M4184 5463 c-4 -10 -10 -157 -13 -327 l-6 -308 -37 -32 c-23 -20 -62
-39 -100 -50 -66 -18 -91 -33 -82 -47 3 -5 16 -50 31 -101 20 -75 26 -121 29
-238 2 -80 4 -148 4 -152 0 -3 15 -11 34 -18 18 -6 72 -37 120 -70 66 -45 104
-63 164 -78 125 -32 169 -57 265 -153 70 -71 87 -94 87 -118 0 -16 6 -36 13
-43 6 -8 25 -28 40 -45 16 -17 35 -48 42 -69 13 -38 13 -36 10 41 -3 44 -11
118 -19 165 -9 47 -16 115 -16 153 0 38 -4 67 -10 67 -5 0 -10 19 -11 43 0 29
-3 36 -8 23 -7 -18 -8 -18 -14 -2 -11 27 -8 96 3 96 6 0 10 23 10 50 l0 50
-40 0 c-22 0 -40 -4 -40 -10 0 -5 -4 -10 -8 -10 -15 0 -52 90 -52 125 0 24 -5
35 -15 35 -8 0 -15 -9 -15 -20 0 -11 -5 -20 -10 -20 -22 0 -99 42 -104 57 -11
28 5 85 25 90 11 3 19 10 19 17 0 6 9 17 20 24 17 10 20 22 19 65 -4 117 34
175 148 228 87 40 153 53 241 45 74 -7 74 -7 59 14 -22 32 -90 87 -154 126
-70 42 -140 46 -206 13 -33 -17 -58 -22 -116 -21 -96 2 -113 -9 -156 -104 -38
-84 -66 -106 -111 -85 -21 9 -25 16 -20 34 10 35 20 477 12 530 -8 49 -18 59
-32 30z m376 -1113 c0 -5 -2 -10 -4 -10 -3 0 -8 5 -11 10 -3 6 -1 10 4 10 6 0
11 -4 11 -10z"/>
<path d="M3633 5438 c-30 -8 -32 -10 -21 -33 14 -32 31 -32 47 -1 19 34 11 44
-26 34z"/>
<path d="M2671 5406 c-43 -15 -26 -31 46 -40 62 -8 74 5 34 33 -33 24 -34 24
-80 7z"/>
<path d="M6679 5270 c-9 -19 -24 -58 -33 -87 -10 -29 -31 -67 -47 -84 -34 -36
-59 -80 -59 -103 0 -8 -11 -27 -24 -43 -28 -33 -24 -45 31 -107 7 -8 13 -32
14 -55 2 -28 10 -48 26 -63 24 -22 31 -48 13 -48 -6 0 -15 -10 -20 -22 -5 -13
-17 -33 -25 -44 -15 -21 -14 -22 17 -34 18 -7 87 -15 153 -17 66 -3 124 -9
130 -14 5 -5 23 -9 40 -9 49 0 66 28 76 117 12 114 11 117 -16 157 -14 20 -27
47 -30 59 -4 14 -27 36 -58 54 -67 41 -154 124 -162 154 -3 13 -6 69 -8 124
l-2 100 -16 -35z"/>
<path d="M3167 5263 c-42 -4 -47 -7 -42 -23 3 -10 0 -28 -7 -39 -7 -11 -10
-23 -7 -26 14 -13 141 62 136 80 -4 12 -16 13 -80 8z"/>
<path d="M3080 5160 c0 -5 5 -10 10 -10 6 0 10 5 10 10 0 6 -4 10 -10 10 -5 0
-10 -4 -10 -10z"/>
<path d="M6941 4504 c0 -11 3 -14 6 -6 3 7 2 16 -1 19 -3 4 -6 -2 -5 -13z"/>
<path d="M6488 4443 c7 -3 16 -2 19 1 4 3 -2 6 -13 5 -11 0 -14 -3 -6 -6z"/>
<path d="M6941 4371 c-22 -40 -55 -137 -52 -151 2 -8 8 -18 14 -22 15 -9 21
-135 9 -180 -12 -43 0 -71 17 -40 6 12 28 33 48 47 30 20 45 23 75 19 21 -4
38 -4 38 0 0 3 -29 20 -64 37 -65 32 -98 72 -80 100 7 13 16 209 9 209 -2 0
-9 -8 -14 -19z"/>
<path d="M4721 4364 c0 -11 3 -14 6 -6 3 7 2 16 -1 19 -3 4 -6 -2 -5 -13z"/>
<path d="M4010 4165 c0 -9 5 -15 11 -13 6 2 11 8 11 13 0 5 -5 11 -11 13 -6 2
-11 -4 -11 -13z"/>
<path d="M2438 4083 c7 -3 16 -2 19 1 4 3 -2 6 -13 5 -11 0 -14 -3 -6 -6z"/>
<path d="M4300 4030 c0 -5 5 -10 11 -10 5 0 7 5 4 10 -3 6 -8 10 -11 10 -2 0
-4 -4 -4 -10z"/>
<path d="M4340 4010 c0 -5 5 -10 10 -10 6 0 10 5 10 10 0 6 -4 10 -10 10 -5 0
-10 -4 -10 -10z"/>
<path d="M8895 3944 c-9 -14 -34 -42 -56 -63 -21 -21 -39 -43 -39 -48 0 -15
-91 -113 -106 -113 -8 0 -14 -6 -14 -14 0 -8 -13 -24 -30 -36 -39 -28 -69 -19
-77 22 -6 29 -7 30 -47 23 -23 -4 -50 -7 -61 -7 -35 0 -110 14 -121 23 -6 5
-64 8 -130 7 -92 -1 -130 3 -169 17 -43 15 -86 18 -307 19 -141 0 -259 -2
-263 -6 -4 -3 -8 -37 -8 -75 l-2 -68 50 -2 c28 -1 86 -7 130 -13 48 -6 100 -7
130 -2 28 5 134 5 235 0 102 -5 266 -9 366 -9 166 -1 181 -2 192 -20 7 -10 8
-19 3 -19 -11 0 -19 -30 -14 -47 3 -7 11 -13 19 -13 8 0 14 -3 14 -8 0 -4 9
-13 20 -20 17 -11 21 -10 27 5 8 23 46 77 56 81 4 2 7 10 7 17 0 7 11 22 25
32 16 12 30 37 39 73 8 30 19 56 25 58 6 2 11 8 11 13 0 9 57 89 90 125 17 18
39 94 27 94 -2 0 -12 -12 -22 -26z"/>
<path d="M2045 3876 c-18 -13 -18 -14 3 -25 29 -16 32 -14 32 14 0 28 -8 31
-35 11z"/>
<path d="M2003 3833 c-29 -11 -14 -42 37 -73 8 -5 11 -12 8 -16 -4 -4 -19 1
-33 10 -26 17 -26 17 -16 -3 16 -29 49 -50 72 -44 20 6 27 -13 8 -19 -16 -5
39 -88 57 -88 8 0 14 -4 14 -10 0 -5 6 -10 14 -10 7 0 19 -7 26 -15 7 -8 16
-15 21 -15 5 0 6 7 3 15 -4 8 -12 15 -20 15 -8 0 -14 10 -14 25 0 17 -6 25
-17 25 -14 0 -15 2 -4 9 11 7 11 15 1 45 -6 20 -15 36 -18 36 -8 0 -42 74 -42
91 0 6 -6 9 -13 6 -7 -3 -21 1 -32 9 -19 14 -31 16 -52 7z m61 -39 c20 -19 21
-35 2 -28 -8 3 -16 14 -19 25 -6 23 -3 24 17 3z"/>
<path d="M6766 3577 c-11 -45 22 -116 46 -101 13 8 9 99 -4 112 -19 19 -35 14
-42 -11z"/>
<path d="M4861 3384 c0 -11 3 -14 6 -6 3 7 2 16 -1 19 -3 4 -6 -2 -5 -13z"/>
<path d="M4980 3310 c0 -5 5 -10 10 -10 6 0 10 5 10 10 0 6 -4 10 -10 10 -5 0
-10 -4 -10 -10z"/>
<path d="M4906 3275 c4 -8 8 -15 10 -15 2 0 4 7 4 15 0 8 -4 15 -10 15 -5 0
-7 -7 -4 -15z"/>
<path d="M3138 3263 c7 -3 16 -2 19 1 4 3 -2 6 -13 5 -11 0 -14 -3 -6 -6z"/>
<path d="M5025 3192 c-11 -2 -28 -12 -37 -23 -14 -14 -16 -23 -8 -45 6 -15 8
-34 5 -42 -6 -15 22 -140 35 -157 5 -5 11 -27 15 -48 4 -20 11 -40 16 -43 5
-3 9 -14 9 -26 0 -16 4 -19 23 -14 12 4 43 11 70 17 26 6 45 14 43 17 -2 4 14
7 36 8 23 0 43 6 49 15 13 21 11 29 -10 29 -10 0 -24 7 -31 15 -7 8 -19 15
-26 15 -9 0 -14 11 -14 28 0 16 -20 68 -44 116 -60 118 -88 148 -131 138z"/>
<path d="M4895 2920 c-3 -5 -2 -10 4 -10 5 0 13 5 16 10 3 6 2 10 -4 10 -5 0
-13 -4 -16 -10z"/>
<path d="M4900 2890 c0 -5 9 -10 20 -10 11 0 20 5 20 10 0 6 -9 10 -20 10 -11
0 -20 -4 -20 -10z"/>
<path d="M4850 2879 c0 -5 5 -7 10 -4 6 3 10 8 10 11 0 2 -4 4 -10 4 -5 0 -10
-5 -10 -11z"/>
<path d="M5706 2754 c-38 -8 -72 -17 -75 -20 -8 -8 68 3 139 20 72 18 25 18
-64 0z"/>
<path d="M5578 2723 c7 -3 16 -2 19 1 4 3 -2 6 -13 5 -11 0 -14 -3 -6 -6z"/>
<path d="M5528 2713 c7 -3 16 -2 19 1 4 3 -2 6 -13 5 -11 0 -14 -3 -6 -6z"/>
<path d="M5924 2555 c-19 -14 -18 -14 4 -15 13 0 22 6 22 15 0 19 -1 19 -26 0z"/>
<path d="M4675 2520 c-3 -6 1 -7 9 -4 18 7 21 14 7 14 -6 0 -13 -4 -16 -10z"/>
<path d="M4625 2480 c-10 -11 -16 -20 -13 -20 3 0 15 9 28 20 13 11 19 20 13
20 -5 0 -18 -9 -28 -20z"/>
<path d="M5850 2490 c0 -5 7 -10 15 -10 8 0 15 5 15 10 0 6 -7 10 -15 10 -8 0
-15 -4 -15 -10z"/>
<path d="M5787 2444 c-8 -8 1 -24 14 -24 5 0 9 7 9 15 0 15 -12 20 -23 9z"/>
<path d="M4525 2385 c-19 -15 -24 -24 -15 -24 8 0 23 11 33 24 22 31 20 31
-18 0z"/>
<path d="M4454 2319 c-19 -22 -19 -22 4 -8 12 8 22 17 22 21 0 12 -6 9 -26
-13z"/>
<path d="M4769 2306 c-25 -6 -61 -23 -80 -36 -35 -25 -162 -131 -190 -159 -19
-19 -41 -38 -174 -150 -55 -47 -104 -88 -109 -93 -6 -4 -3 -15 7 -26 9 -10 17
-22 17 -26 0 -4 7 -14 15 -22 13 -14 15 -13 15 10 0 15 -6 26 -16 28 -14 2
-13 8 10 35 28 34 196 167 316 251 41 29 117 82 168 118 116 82 121 97 21 70z"/>
<path d="M4321 2200 c-36 -33 -63 -62 -60 -64 3 -3 36 24 75 59 38 36 65 65
59 64 -5 0 -39 -27 -74 -59z"/>
<path d="M6111 2204 c0 -11 3 -14 6 -6 3 7 2 16 -1 19 -3 4 -6 -2 -5 -13z"/>
<path d="M1911 2018 c-1 -49 3 -88 7 -88 8 0 5 141 -3 165 -2 6 -4 -29 -4 -77z"/>
<path d="M3885 2055 c-5 -17 -4 -65 2 -115 6 -47 11 -95 11 -107 1 -12 23 -56
51 -97 28 -41 51 -79 51 -83 0 -4 19 -34 43 -65 23 -31 47 -65 54 -75 11 -17
12 -17 12 0 1 10 -30 81 -69 158 -38 76 -80 167 -93 201 -14 35 -28 72 -33 83
-4 11 -10 45 -14 75 -6 51 -7 53 -15 25z"/>
<path d="M3766 2004 c-4 -9 -4 -19 -1 -22 2 -3 7 3 11 12 4 9 4 19 1 22 -2 3
-7 -3 -11 -12z"/>
<path d="M3752 1900 c0 -14 2 -19 5 -12 2 6 2 18 0 25 -3 6 -5 1 -5 -13z"/>
<path d="M4375 1829 c-33 -27 -68 -52 -77 -55 -22 -7 -23 -22 -3 -62 29 -57
101 -105 177 -117 21 -3 43 -11 50 -18 7 -7 22 -19 32 -27 18 -14 19 -13 13 3
-5 14 -2 16 19 11 25 -6 25 -6 19 50 -5 58 -19 96 -35 96 -13 0 -68 60 -86 93
-8 15 -19 25 -24 22 -6 -4 -10 5 -10 19 0 14 -3 27 -7 29 -5 3 -35 -17 -68
-44z"/>
<path d="M3637 1723 c-4 -6 -9 -46 -12 -87 l-5 -77 25 17 c14 9 25 24 25 33
-1 36 -27 124 -33 114z"/>
<path d="M3773 1675 c3 -19 3 -34 -1 -34 -22 4 -21 -5 7 -36 42 -48 42 -101 1
-165 -27 -43 -101 -120 -115 -120 -11 0 -45 -41 -45 -54 0 -8 -22 -33 -50 -56
-56 -47 -62 -67 -25 -76 20 -5 24 -11 19 -29 -5 -22 -3 -23 63 -29 191 -17
264 -18 261 -5 -2 7 12 18 30 24 49 17 61 33 38 51 -11 8 -28 14 -38 14 -10 0
-21 8 -25 18 -9 25 -44 62 -60 62 -7 0 -13 7 -13 16 0 14 1 14 16 0 8 -9 22
-16 30 -16 20 0 9 65 -18 102 -11 15 -19 38 -18 50 0 13 0 36 0 51 1 15 5 25
10 22 4 -3 10 0 12 6 4 12 37 -50 59 -109 9 -24 14 -30 20 -20 12 18 11 58 -1
58 -5 0 -10 10 -10 23 0 30 -132 287 -147 287 -3 0 -3 -16 0 -35z m-144 -476
c-33 -24 -38 -14 -8 17 15 16 25 21 28 13 2 -6 -7 -20 -20 -30z"/>
<path d="M3705 1500 c-9 -15 3 -30 25 -30 13 0 17 5 13 20 -6 21 -28 27 -38
10z"/>
<path d="M5137 1443 c-4 -3 -7 -11 -7 -17 0 -6 5 -5 12 2 6 6 9 14 7 17 -3 3
-9 2 -12 -2z"/>
<path d="M4645 1420 c-3 -5 2 -21 11 -35 23 -35 22 -126 0 -161 -17 -25 -17
-27 2 -47 11 -12 22 -29 25 -37 3 -10 8 -6 17 15 15 38 6 127 -22 213 -21 65
-23 68 -33 52z"/>
<path d="M4970 1388 c0 -28 14 -38 43 -30 22 6 22 22 1 22 -9 0 -23 8 -30 18
-12 15 -13 15 -14 -10z"/>
<path d="M4785 1340 c-3 -5 4 -28 15 -51 16 -30 20 -51 15 -75 -3 -19 -10 -33
-14 -31 -5 1 -9 -2 -10 -8 0 -5 -15 -12 -33 -15 -26 -4 -36 -13 -53 -47 -11
-24 -23 -43 -27 -43 -9 0 -72 -43 -92 -62 -13 -14 -13 -18 -1 -34 8 -11 15
-27 15 -36 0 -18 -58 -68 -78 -68 -12 0 -99 -58 -137 -91 -11 -9 -40 -27 -65
-40 -25 -12 -66 -35 -92 -51 -30 -19 -54 -27 -66 -24 -11 4 -39 0 -63 -8 -48
-16 -83 -22 -171 -31 -32 -3 -73 -12 -93 -20 -19 -8 -42 -15 -52 -15 -10 0
-31 -7 -47 -15 -16 -8 -40 -17 -55 -19 -14 -3 -75 -12 -136 -21 -72 -11 -113
-22 -121 -32 -7 -10 -20 -14 -37 -11 -24 5 -143 -15 -154 -25 -2 -3 6 -24 19
-48 62 -113 88 -165 88 -176 0 -7 6 -13 13 -13 7 0 21 -16 30 -35 9 -19 33
-52 52 -74 20 -22 34 -45 31 -50 -3 -5 2 -23 11 -40 16 -27 24 -31 60 -31 l42
0 -24 48 c-13 26 -35 58 -49 72 -38 35 -74 100 -101 183 -13 39 -22 73 -20 75
4 4 45 -81 45 -93 0 -23 69 -143 103 -179 20 -22 37 -46 37 -53 0 -7 4 -13 9
-13 5 0 13 -9 16 -20 6 -19 15 -20 146 -20 112 0 144 3 155 15 20 19 34 19 34
0 0 -14 19 -16 130 -14 72 1 130 5 130 8 -1 25 -38 37 -56 18 -11 -10 -24 -9
-24 3 0 6 7 10 16 10 8 0 12 4 9 10 -3 5 1 10 9 10 9 0 16 5 16 10 0 6 7 10
15 10 8 0 15 5 15 10 0 6 7 10 15 10 8 0 15 5 15 10 0 6 7 10 15 10 8 0 14 3
13 8 -1 4 6 21 15 39 12 23 22 31 34 26 10 -4 14 -2 10 4 -4 7 8 21 27 32 19
12 37 28 40 37 11 29 26 3 26 -45 0 -54 -26 -91 -48 -69 -7 7 -12 19 -13 28 0
10 -2 11 -6 2 -2 -6 -9 -10 -14 -6 -5 3 -9 -6 -9 -20 0 -14 5 -28 10 -31 6 -3
10 3 10 15 0 19 2 20 15 6 20 -20 19 -25 -15 -80 -17 -26 -28 -52 -25 -57 4
-5 75 -9 160 -9 l153 0 6 25 c4 14 4 30 1 35 -3 5 -2 26 3 47 5 22 5 51 -1 68
-5 17 -8 58 -7 92 1 36 -3 64 -10 68 -25 16 -30 56 -14 123 12 55 13 77 4 123
-7 30 -10 66 -8 80 3 22 9 24 68 30 99 8 212 39 243 65 16 13 37 24 48 24 10
0 19 5 19 10 0 6 11 10 25 10 18 0 23 4 19 15 -4 9 0 15 9 15 9 0 18 4 21 9 4
5 -4 7 -16 5 -29 -5 28 13 65 21 15 3 27 12 27 20 0 8 6 15 13 15 19 0 77 50
77 66 0 8 -10 14 -23 14 -14 0 -24 6 -24 15 0 18 14 20 20 3 2 -7 8 -9 13 -5
5 5 1 15 -10 23 -17 12 -14 16 12 13 4 -1 6 -5 4 -10 -1 -5 5 -9 14 -9 15 0
15 2 0 24 -14 23 -14 25 2 29 9 3 1 5 -18 5 -19 0 -29 -2 -22 -5 20 -8 3 -23
-28 -23 -24 0 -28 -4 -25 -20 2 -11 0 -18 -5 -15 -5 3 -10 -7 -12 -22 -2 -14
-8 -28 -14 -30 -7 -2 -10 9 -7 32 3 28 0 35 -14 35 -16 1 -16 2 -3 13 10 8 15
30 15 67 l0 55 -35 3 c-22 2 -30 -1 -22 -6 13 -9 12 -38 -1 -59 -4 -6 -1 -14
5 -17 7 -4 -5 -4 -27 -1 -24 3 -35 1 -26 -4 15 -10 0 -23 -21 -18 -7 2 -10 2
-6 0 9 -5 -17 -59 -32 -68 -5 -3 -7 0 -5 7 4 9 -2 14 -14 14 -11 0 -18 -3 -16
-6 2 -3 0 -12 -6 -20 -15 -25 -10 32 6 60 20 34 19 35 -17 38 -42 3 -42 5 -24
41 9 16 16 45 15 63 0 28 -2 30 -9 13 -5 -11 -9 -32 -9 -47 -1 -15 -6 -30 -12
-33 -17 -11 -23 3 -9 20 7 9 14 43 14 76 1 60 1 61 29 56 21 -3 27 0 25 12 -2
11 -12 15 -30 13 -21 -3 -30 3 -43 27 -17 33 -21 36 -30 21z m61 -358 c-12
-13 -18 -13 -28 -4 -7 7 -21 12 -31 12 -16 0 -17 3 -8 14 6 8 21 16 32 19 17
5 20 2 16 -14 -8 -28 2 -23 15 9 12 27 12 27 16 3 2 -13 -3 -31 -12 -39z m289
-12 c3 -5 1 -10 -4 -10 -6 0 -11 5 -11 10 0 6 2 10 4 10 3 0 8 -4 11 -10z
m-316 -13 c-2 -1 -12 -9 -22 -16 -15 -12 -17 -12 -11 3 3 9 13 16 22 16 8 0
13 -1 11 -3z m57 -52 c-8 -8 -17 -15 -20 -15 -3 0 -3 7 0 15 4 8 13 15 21 15
12 0 12 -2 -1 -15z m194 -25 c0 -5 -4 -10 -10 -10 -5 0 -10 5 -10 10 0 6 5 10
10 10 6 0 10 -4 10 -10z m-105 -40 c3 -6 -1 -7 -9 -4 -18 7 -21 14 -7 14 6 0
13 -4 16 -10z m-745 -230 c0 -5 -4 -10 -10 -10 -5 0 -10 5 -10 10 0 6 5 10 10
10 6 0 10 -4 10 -10z m-45 -10 c3 -5 2 -10 -4 -10 -5 0 -13 5 -16 10 -3 6 -2
10 4 10 5 0 13 -4 16 -10z m78 -32 c16 -13 45 -81 54 -129 5 -27 -18 -46 -39
-32 -6 3 -8 1 -4 -5 3 -6 2 -13 -4 -17 -6 -3 -13 1 -16 9 -3 9 -17 16 -30 16
-27 0 -32 15 -8 28 14 8 14 14 0 61 -15 51 -15 52 5 46 18 -6 20 -4 14 14 -7
24 3 27 28 9z m-147 -85 c3 -10 9 -25 14 -34 7 -13 4 -16 -13 -13 -12 1 -30 6
-41 10 -15 6 -17 3 -12 -14 16 -59 18 -66 11 -60 -5 5 -16 31 -26 59 -13 37
-15 48 -5 39 11 -8 15 -8 18 1 3 8 12 4 26 -11 24 -26 27 -24 12 14 -6 17 -6
26 1 26 5 0 12 -8 15 -17z m31 -15 c-3 -7 -5 -2 -5 12 0 14 2 19 5 13 2 -7 2
-19 0 -25z m-561 -5 c-10 -10 -19 5 -10 18 6 11 8 11 12 0 2 -7 1 -15 -2 -18z
m94 7 c0 -5 -4 -10 -10 -10 -5 0 -10 5 -10 10 0 6 5 10 10 10 6 0 10 -4 10
-10z m-336 -30 c16 -33 11 -40 -10 -12 -13 16 -19 42 -10 42 3 0 11 -13 20
-30z m199 23 c2 -5 -4 -16 -14 -25 -15 -14 -19 -15 -29 -3 -7 8 -9 19 -5 25 7
12 42 14 48 3z m107 -14 c0 -5 -4 -9 -10 -9 -5 0 -10 7 -10 16 0 8 5 12 10 9
6 -3 10 -10 10 -16z m-30 -41 c0 -4 -6 -5 -14 -2 -8 3 -12 12 -9 21 5 12 7 12
14 1 5 -7 9 -16 9 -20z m-135 12 c3 -5 1 -10 -4 -10 -6 0 -11 5 -11 10 0 6 2
10 4 10 3 0 8 -4 11 -10z m541 -9 c-4 -6 -14 -7 -23 -4 -15 6 -14 7 3 13 22 9
29 6 20 -9z m-436 -41 c23 -45 24 -50 9 -50 -6 0 -17 -7 -25 -15 -23 -22 -37
-18 -30 8 3 12 6 30 6 41 0 16 2 17 17 5 18 -15 18 -16 -3 36 -13 32 7 13 26
-25z m135 30 c-3 -5 -13 -10 -21 -10 -8 0 -12 5 -9 10 3 6 13 10 21 10 8 0 12
-4 9 -10z m623 -43 c17 -72 16 -80 -13 -107 -20 -18 -28 -21 -37 -12 -9 9 -8
12 4 12 8 0 22 7 29 16 12 15 11 16 -8 10 -19 -6 -22 -2 -28 34 -6 35 -9 39
-26 30 -10 -6 -19 -7 -19 -3 0 8 71 72 80 73 3 0 11 -24 18 -53z m-238 33 c0
-5 -2 -10 -4 -10 -3 0 -8 5 -11 10 -3 6 -1 10 4 10 6 0 11 -4 11 -10z m-653
-72 c-3 -8 -6 -5 -6 6 -1 11 2 17 5 13 3 -3 4 -12 1 -19z m36 3 c3 -14 1 -18
-9 -14 -8 3 -14 11 -14 19 0 21 17 17 23 -5z m157 9 c0 -5 -2 -10 -4 -10 -3 0
-8 5 -11 10 -3 6 -1 10 4 10 6 0 11 -4 11 -10z m580 0 c0 -5 -7 -10 -16 -10
-8 0 -12 5 -9 10 3 6 10 10 16 10 5 0 9 -4 9 -10z m-490 -4 c0 -3 -4 -8 -10
-11 -5 -3 -10 -1 -10 4 0 6 5 11 10 11 6 0 10 -2 10 -4z m158 -21 c-3 -3 -9 2
-12 12 -6 14 -5 15 5 6 7 -7 10 -15 7 -18z m122 18 c0 -5 -20 -17 -43 -27 -23
-11 -44 -23 -47 -27 -3 -4 -12 -4 -20 1 -10 6 -11 10 -3 10 7 0 11 6 9 13 -1
6 -1 9 1 5 7 -13 23 -9 21 4 -2 7 11 15 27 19 43 10 55 10 55 2z m-236 -70
c-8 -8 -18 -13 -21 -9 -4 3 2 12 12 20 12 9 15 15 7 20 -7 4 -12 15 -12 24 0
11 5 7 15 -11 13 -26 13 -30 -1 -44z m485 -15 l-1 -33 -10 38 c-6 20 -14 37
-19 37 -5 0 -9 7 -9 15 0 12 4 11 20 -5 12 -12 20 -32 19 -52z m-207 32 c-13
-13 -23 -16 -27 -9 -4 6 2 13 14 16 12 3 21 10 21 16 0 6 3 7 7 4 3 -4 -3 -16
-15 -27z m108 18 c0 -6 -3 -8 -7 -5 -4 4 -20 -5 -36 -20 -23 -22 -28 -24 -26
-10 2 10 8 17 12 15 5 -2 13 5 18 15 11 19 39 23 39 5z m-410 -9 c0 -5 -4 -7
-10 -4 -5 3 -10 1 -10 -6 0 -7 -3 -10 -6 -6 -8 7 4 27 17 27 5 0 9 -5 9 -11z
m-72 -34 c-3 -3 -9 2 -12 12 -6 14 -5 15 5 6 7 -7 10 -15 7 -18z m397 5 c-3
-6 3 -23 14 -39 27 -38 28 -71 2 -64 -14 4 -21 15 -23 42 -2 29 -7 36 -23 33
-18 -2 -18 -1 4 18 25 22 36 26 26 10z m-422 -22 c9 -32 -25 -48 -67 -32 -13
5 -13 8 2 24 15 16 36 27 53 29 4 1 9 -9 12 -21z m156 -28 c0 -9 -4 -8 -9 5
-5 11 -9 27 -9 35 0 9 4 8 9 -5 5 -11 9 -27 9 -35z m-72 18 c-3 -8 -6 -5 -6 6
-1 11 2 17 5 13 3 -3 4 -12 1 -19z m393 12 c0 -5 7 -10 15 -10 8 0 15 -6 15
-14 0 -26 -17 -26 -34 -1 -19 28 -20 35 -6 35 6 0 10 -4 10 -10z m-445 -10 c3
-5 1 -10 -4 -10 -6 0 -11 5 -11 10 0 6 2 10 4 10 3 0 8 -4 11 -10z m335 -10
c0 -5 -5 -10 -11 -10 -5 0 -7 5 -4 10 3 6 8 10 11 10 2 0 4 -4 4 -10z m-305
-10 c-3 -5 -12 -10 -18 -10 -7 0 -6 4 3 10 19 12 23 12 15 0z m45 -4 c0 -3 -4
-8 -10 -11 -5 -3 -10 -1 -10 4 0 6 5 11 10 11 6 0 10 -2 10 -4z m433 -26 c-27
-30 -43 -38 -43 -20 0 17 34 50 52 50 15 0 14 -5 -9 -30z m-403 10 c0 -5 -5
-10 -11 -10 -5 0 -7 5 -4 10 3 6 8 10 11 10 2 0 4 -4 4 -10z m245 -40 c3 -5 2
-10 -4 -10 -5 0 -13 5 -16 10 -3 6 -2 10 4 10 5 0 13 -4 16 -10z m-355 -25
c-6 -7 -19 -14 -28 -14 -9 0 -32 -3 -49 -7 -21 -4 -33 -2 -33 4 0 18 30 29 77
30 37 1 43 -1 33 -13z m450 6 c0 -11 -31 -24 -39 -16 -3 3 1 10 9 15 19 12 30
12 30 1z m-261 -34 c-2 -1 -13 -9 -24 -17 -19 -14 -19 -14 -6 3 7 9 18 17 24
17 6 0 8 -1 6 -3z m144 -38 c-12 -12 -69 -18 -84 -8 -8 4 -10 11 -6 16 5 4 12
1 17 -7 6 -9 10 -10 10 -3 0 6 12 13 28 15 32 4 47 -1 35 -13z m52 11 c-3 -5
-14 -10 -23 -10 -15 0 -15 2 -2 10 20 13 33 13 25 0z"/>
<path d="M4260 460 c0 -5 5 -10 10 -10 6 0 10 5 10 10 0 6 -4 10 -10 10 -5 0
-10 -4 -10 -10z"/>
<path d="M5014 1328 c-7 -11 18 -10 36 2 11 7 10 9 -8 7 -13 -1 -26 -5 -28 -9z"/>
<path d="M5253 1313 c-8 -21 30 -143 45 -143 15 0 9 98 -8 129 -5 10 -7 20 -5
23 3 3 -2 5 -11 5 -9 0 -18 -6 -21 -14z"/>
<path d="M5035 1310 c-3 -5 -2 -10 4 -10 5 0 13 5 16 10 3 6 2 10 -4 10 -5 0
-13 -4 -16 -10z"/>
<path d="M5061 1284 c0 -11 3 -14 6 -6 3 7 2 16 -1 19 -3 4 -6 -2 -5 -13z"/>
<path d="M4928 1273 c6 -2 18 -2 25 0 6 3 1 5 -13 5 -14 0 -19 -2 -12 -5z"/>
<path d="M3990 1251 c0 -31 28 -52 58 -45 33 8 41 14 19 14 -9 0 -17 5 -17 10
0 6 -6 10 -14 10 -8 0 -16 7 -20 15 -8 21 -26 19 -26 -4z"/>
<path d="M4928 1253 c6 -2 18 -2 25 0 6 3 1 5 -13 5 -14 0 -19 -2 -12 -5z"/>
<path d="M4966 1242 c-10 -10 -6 -23 5 -17 6 4 13 -3 16 -15 4 -16 8 -18 14
-8 5 7 9 18 9 24 0 13 -35 25 -44 16z"/>
<path d="M4785 1210 c3 -5 8 -10 11 -10 2 0 4 5 4 10 0 6 -5 10 -11 10 -5 0
-7 -4 -4 -10z"/>
<path d="M4876 1188 c-7 -23 -3 -53 10 -65 10 -10 12 -4 12 32 -1 42 -14 61
-22 33z"/>
<path d="M5050 1180 c0 -5 5 -10 11 -10 5 0 7 5 4 10 -3 6 -8 10 -11 10 -2 0
-4 -4 -4 -10z"/>
<path d="M4322 1148 c-45 -16 -106 -31 -135 -34 -29 -3 -88 -14 -132 -24 -44
-11 -93 -20 -110 -22 -28 -3 -29 -4 -10 -15 17 -9 35 -8 90 7 79 22 127 25
156 10 15 -9 35 -2 97 30 43 22 88 40 99 40 11 0 28 9 38 20 24 27 10 25 -93
-12z"/>
<path d="M4983 1113 c9 -2 23 -2 30 0 6 3 -1 5 -18 5 -16 0 -22 -2 -12 -5z"/>
<path d="M5208 1103 c7 -3 16 -2 19 1 4 3 -2 6 -13 5 -11 0 -14 -3 -6 -6z"/>
<path d="M4933 1085 c-10 -11 -9 -13 6 -12 10 0 18 7 18 14 0 17 -9 16 -24 -2z"/>
<path d="M9880 1064 c0 -8 5 -12 10 -9 6 3 10 10 10 16 0 5 -4 9 -10 9 -5 0
-10 -7 -10 -16z"/>
<path d="M5138 1063 c7 -3 16 -2 19 1 4 3 -2 6 -13 5 -11 0 -14 -3 -6 -6z"/>
<path d="M4920 1043 c0 -13 5 -23 10 -23 13 0 13 11 0 30 -8 12 -10 11 -10 -7z"/>
<path d="M4136 904 c-3 -7 1 -15 9 -18 18 -6 64 6 67 19 4 15 -70 14 -76 -1z"/>
<path d="M4005 879 c-10 -16 1 -22 26 -14 17 6 19 9 8 16 -19 12 -26 11 -34
-2z"/>
<path d="M3658 583 c6 -2 18 -2 25 0 6 3 1 5 -13 5 -14 0 -19 -2 -12 -5z"/>
<path d="M3510 570 c0 -5 5 -10 10 -10 6 0 10 5 10 10 0 6 -4 10 -10 10 -5 0
-10 -4 -10 -10z"/>
<path d="M2825 340 c3 -5 13 -10 21 -10 8 0 12 5 9 10 -3 6 -13 10 -21 10 -8
0 -12 -4 -9 -10z"/>
<path d="M2795 311 c-7 -12 26 -31 54 -31 12 0 21 5 21 10 0 6 -9 10 -19 10
-11 0 -23 5 -26 10 -8 13 -22 13 -30 1z"/>
<path d="M4286 105 c-3 -9 0 -15 9 -15 16 0 20 16 6 24 -5 3 -11 -1 -15 -9z"/>
<path d="M4260 69 c0 -5 5 -7 10 -4 6 3 10 8 10 11 0 2 -4 4 -10 4 -5 0 -10
-5 -10 -11z"/>
<path d="M4305 69 c-4 -6 -5 -12 -2 -15 2 -3 7 2 10 11 7 17 1 20 -8 4z"/>
<path d="M4240 53 c0 -7 -9 -13 -20 -13 -14 0 -20 -7 -20 -22 0 -19 2 -20 18
-6 9 9 22 17 29 19 8 3 9 9 3 19 -6 10 -10 11 -10 3z"/>
<path d="M9572 20 c0 -14 2 -19 5 -12 2 6 2 18 0 25 -3 6 -5 1 -5 -13z"/>
<path d="M9682 20 c0 -14 2 -19 5 -12 2 6 2 18 0 25 -3 6 -5 1 -5 -13z"/>
<path d="M4225 10 c-3 -5 -1 -10 4 -10 6 0 11 5 11 10 0 6 -2 10 -4 10 -3 0
-8 -4 -11 -10z"/>
</g>
</svg>
