<?xml version="1.0" standalone="no"?>
<!DOCTYPE svg PUBLIC "-//W3C//DTD SVG 20010904//EN"
 "http://www.w3.org/TR/2001/REC-SVG-20010904/DTD/svg10.dtd">
<svg version="1.0" xmlns="http://www.w3.org/2000/svg"
 width="403.000000pt" height="125.000000pt" viewBox="0 0 403.000000 125.000000"
 preserveAspectRatio="xMidYMid meet">

<g transform="translate(0.000000,125.000000) scale(0.100000,-0.100000)"
fill="#000000" stroke="none">
<path d="M750 958 l0 -115 77 -7 c42 -3 89 -6 105 -6 l28 0 0 115 0 115 -37 0
c-21 0 -68 3 -105 7 l-68 6 0 -115z"/>
<path d="M1150 765 l0 -295 50 0 50 0 0 295 0 295 -50 0 -50 0 0 -295z"/>
<path d="M1915 1047 c-3 -7 -4 -138 -3 -292 l3 -280 48 -3 47 -3 0 295 0 296
-45 0 c-28 0 -48 -5 -50 -13z"/>
<path d="M1565 881 c-17 -4 -43 -16 -58 -25 -26 -18 -27 -18 -27 3 0 18 -6 21
-45 21 l-45 0 0 -285 0 -285 45 0 45 0 0 105 0 106 30 -22 c36 -27 122 -36
175 -19 20 7 52 25 70 42 99 87 81 279 -33 337 -45 23 -115 33 -157 22z m83
-86 c48 -20 72 -59 72 -122 0 -55 -17 -86 -60 -108 -49 -25 -96 -19 -136 18
-31 28 -37 41 -41 83 -5 60 21 108 70 129 41 18 49 18 95 0z"/>
<path d="M2223 880 c-47 -10 -106 -38 -101 -48 2 -4 10 -20 18 -35 9 -19 18
-26 29 -21 9 4 35 13 58 22 76 26 153 -6 153 -63 0 -25 -1 -25 -80 -25 -130 0
-190 -36 -190 -115 0 -85 63 -131 169 -123 37 3 67 11 79 21 24 22 32 21 32
-3 0 -17 7 -20 46 -20 l46 0 -4 159 c-3 142 -5 163 -24 188 -40 55 -139 82
-231 63z m157 -264 c0 -46 -37 -76 -95 -76 -57 0 -91 26 -81 64 8 34 35 45
114 45 l62 1 0 -34z"/>
<path d="M2722 875 c-147 -46 -199 -218 -99 -332 80 -91 233 -99 320 -16 15
15 27 29 27 33 0 3 -15 14 -33 23 -34 18 -34 18 -72 -7 -116 -79 -248 51 -175
172 39 64 120 76 179 26 l29 -24 36 21 c30 17 34 24 26 39 -14 27 -59 56 -105
69 -51 14 -79 13 -133 -4z"/>
<path d="M3173 881 c-131 -33 -199 -182 -137 -302 19 -37 76 -85 120 -99 54
-18 164 -8 208 19 43 27 45 39 11 71 -24 22 -26 23 -44 5 -26 -23 -99 -31
-146 -15 -32 11 -75 57 -75 83 0 4 73 7 161 7 l161 0 -4 54 c-8 100 -75 167
-178 179 -25 3 -59 2 -77 -2z m139 -110 c50 -56 42 -61 -87 -61 -126 0 -133 4
-94 54 29 37 55 47 109 42 34 -3 51 -11 72 -35z"/>
<path d="M3477 868 c82 -107 133 -179 133 -187 0 -6 -34 -55 -76 -108 l-75
-98 46 -3 c54 -4 63 3 121 83 21 30 41 55 44 54 3 0 28 -31 55 -69 l50 -69 53
-1 c28 0 52 2 52 4 0 2 -34 48 -75 101 -41 54 -75 102 -75 107 0 5 32 51 71
101 l71 92 -48 3 c-53 4 -52 4 -120 -87 l-31 -41 -49 64 -49 65 -54 1 c-41 0
-51 -3 -44 -12z"/>
<path d="M2786 308 c-10 -14 -16 -44 -16 -80 0 -83 18 -98 113 -98 94 0 107
12 107 99 0 56 2 62 25 73 19 8 31 8 50 0 24 -11 25 -16 25 -92 0 -64 3 -80
15 -80 12 0 15 16 15 83 0 101 -12 117 -82 117 -59 0 -70 -14 -77 -98 l-6 -67
-75 0 c-74 0 -75 0 -78 28 l-3 27 65 0 66 0 0 38 c0 52 -23 72 -83 72 -36 0
-49 -5 -61 -22z m95 -8 c10 -6 19 -20 19 -30 0 -17 -7 -20 -50 -20 -43 0 -50
3 -50 20 0 33 44 49 81 30z"/>
<path d="M3172 318 c-7 -7 -12 -43 -12 -90 0 -66 3 -79 19 -88 29 -15 83 -12
109 6 19 13 22 24 22 83 0 53 -4 72 -18 84 -22 20 -102 23 -120 5z m97 -22 c7
-9 11 -38 9 -73 l-3 -58 -39 -3 c-48 -4 -56 7 -56 75 0 39 4 55 18 62 25 15
58 13 71 -3z"/>
<path d="M3352 279 c24 -130 66 -182 102 -127 16 24 46 129 46 160 0 30 -30
21 -31 -9 0 -39 -32 -136 -45 -140 -10 -3 -33 65 -49 140 -3 15 -11 27 -19 27
-11 0 -11 -10 -4 -51z"/>
<path d="M3540 247 c0 -98 12 -117 77 -117 61 0 73 20 73 118 0 65 -3 82 -15
82 -11 0 -15 -18 -17 -82 l-3 -83 -36 -3 c-51 -4 -61 13 -57 98 2 51 0 70 -9
70 -9 0 -13 -23 -13 -83z"/>
<path d="M3742 318 c-14 -14 -16 -57 -3 -77 5 -8 31 -17 58 -20 43 -5 48 -9
48 -31 0 -21 -5 -25 -36 -28 -23 -2 -40 2 -49 12 -15 20 -30 21 -30 3 0 -44
101 -65 133 -29 21 23 22 65 2 82 -8 7 -35 15 -59 17 -49 6 -64 24 -40 48 20
19 58 19 78 0 16 -17 36 -20 36 -6 0 5 -7 17 -16 25 -19 19 -104 22 -122 4z"/>
</g>
</svg>
